<?xml version="1.0" encoding="utf-8"?>
<!-- Generator: Adobe Illustrator 27.5.0, SVG Export Plug-In . SVG Version: 6.00 Build 0)  -->
<svg version="1.1" id="Layer_1" xmlns="http://www.w3.org/2000/svg" xmlns:xlink="http://www.w3.org/1999/xlink" x="0px" y="0px"
	 viewBox="0 0 329.661 239.486" style="enable-background:new 0 0 329.661 239.486;" xml:space="preserve">
<g>
	<g>
		<path style="fill:#FFFFFF;" d="M52.392,194.619c15.02,5.198,34.925,7.021,57.945,9.128c17,1.556,34.577,3.164,52.441,6.307
			c17.577,3.093,34.211,7.399,50.297,11.564c17.175,4.446,33.405,8.648,47.061,10.175c5.898,0.963,12.158,1.706,18.342,1.706
			c15.198,0,29.941-4.492,37.758-21.264c0.039-0.08,0.077-0.16,0.11-0.233c0.018-0.039,0.035-0.079,0.053-0.118
			c0.266-0.584,0.523-1.186,0.787-1.836c0.014-0.035,0.027-0.071,0.042-0.107c0.319-0.803,0.624-1.629,0.891-2.42
			c0.012-0.033,0.039-0.113,0.05-0.146c0.276-0.822,0.539-1.676,0.77-2.499l0.091-0.318c0.221-0.796,0.426-1.616,0.62-2.462
			l0.1-0.421c0.224-1.002,0.414-1.955,0.586-2.928c0.135-0.767,0.253-1.533,0.367-2.345l0.05-0.334
			c0.033-0.238,0.061-0.479,0.089-0.718l0.142-1.206c0.031-0.26,0.062-0.518,0.088-0.783c0.028-0.294,0.052-0.59,0.074-0.886
			l0.044-0.537c0.035-0.422,0.07-0.845,0.097-1.273c0.02-0.326,0.033-0.652,0.046-0.979l0.024-0.553
			c0.018-0.392,0.035-0.783,0.044-1.152c0.009-0.333,0.011-0.664,0.013-0.996l0.004-0.56c0.004-0.383,0.006-0.766,0.002-1.173
			c-0.005-0.395-0.016-0.791-0.028-1.188l-0.011-0.361c-0.011-0.388-0.022-0.775-0.04-1.158c-0.021-0.427-0.048-0.854-0.075-1.283
			l-0.016-0.246c-0.025-0.389-0.051-0.777-0.082-1.16c-0.039-0.484-0.086-0.967-0.135-1.458c-0.042-0.42-0.084-0.841-0.131-1.233
			c-0.056-0.5-0.122-1-0.189-1.511c-0.054-0.401-0.108-0.802-0.167-1.193c-0.076-0.51-0.159-1.021-0.249-1.559
			c-0.063-0.371-0.127-0.741-0.195-1.123c-0.097-0.526-0.199-1.053-0.303-1.567c-0.075-0.377-0.153-0.753-0.227-1.085
			c-0.115-0.545-0.239-1.09-0.369-1.644c-0.08-0.342-0.163-0.683-0.248-1.025c-0.138-0.556-0.28-1.112-0.437-1.696l-0.26-0.941
			c-0.161-0.573-0.325-1.147-0.503-1.734l-0.271-0.879c-0.186-0.595-0.376-1.188-0.586-1.818l-0.263-0.77
			c-0.215-0.625-0.435-1.25-0.654-1.849l-0.269-0.718c-0.245-0.651-0.492-1.303-0.755-1.96l-0.229-0.56
			c-0.28-0.693-0.566-1.383-0.858-2.062l-0.175-0.395c-0.325-0.745-0.657-1.49-0.987-2.199l-0.086-0.184
			c-5.041-10.812-12.091-21.264-20.96-31.073c-3.243-4.07-6.681-7.525-10.225-10.275c-1.231-1.124-2.514-2.258-3.911-3.455h-0.001
			c-0.028-0.024-0.058-0.05-0.088-0.074c-10.061-8.606-21.325-16.145-33.554-22.465l0.155-5.957c0-0.007,0.002-0.105,0.002-0.113
			l0.064-3.52c0.001-0.016,0.001-0.106,0.001-0.121l0.007-0.48c0.128-9.42-0.052-16.178-0.55-20.658
			c-0.088-0.791-0.21-1.591-0.379-2.494c-0.039-0.207-0.079-0.412-0.126-0.64c-0.189-0.915-0.377-1.684-0.588-2.419
			c-0.015-0.05-0.029-0.1-0.045-0.149c-0.204-0.698-0.443-1.415-0.741-2.216c-0.068-0.185-0.139-0.367-0.198-0.52
			c-0.316-0.81-0.628-1.532-0.977-2.259c-0.034-0.07-0.069-0.141-0.106-0.212c-0.293-0.597-0.618-1.204-0.985-1.846
			c-0.102-0.179-0.206-0.357-0.306-0.524c-0.427-0.716-0.837-1.354-1.213-1.893c-0.078-0.114-0.158-0.227-0.243-0.342
			c-0.381-0.536-0.781-1.062-1.239-1.633c-0.115-0.144-0.231-0.288-0.337-0.415c-0.509-0.615-0.987-1.158-1.436-1.637
			c-0.105-0.112-0.214-0.224-0.279-0.288c-0.434-0.454-0.88-0.896-1.385-1.373c-0.15-0.143-0.301-0.284-0.445-0.415
			c-0.512-0.468-1.034-0.928-1.604-1.396c-0.113-0.093-0.23-0.184-0.367-0.291c-0.438-0.353-0.885-0.695-1.362-1.048l-0.573-0.419
			c-0.537-0.384-1.083-0.759-1.688-1.15l-0.533-0.334c-0.41-0.258-0.827-0.512-1.25-0.761c-0.234-0.136-0.468-0.274-0.723-0.417
			c-0.543-0.307-1.092-0.606-1.655-0.898c-0.19-0.098-0.382-0.192-0.573-0.287l-0.176-0.087c-0.366-0.182-0.734-0.36-1.172-0.566
			c-0.268-0.125-0.536-0.25-0.8-0.368c-0.518-0.232-1.039-0.458-1.58-0.682c-0.326-0.135-0.653-0.264-0.958-0.383
			c-0.324-0.128-0.649-0.253-1.023-0.394c-0.315-0.116-0.63-0.233-0.956-0.35c-0.386-0.135-0.773-0.267-1.168-0.398
			c-0.486-0.162-0.975-0.316-1.458-0.465c-0.277-0.086-0.556-0.17-0.789-0.237c-0.381-0.112-0.764-0.223-1.136-0.325l-0.707-0.188
			c-0.661-0.174-1.326-0.34-1.984-0.492l-0.754-0.172c-0.37-0.082-0.738-0.162-1.107-0.238c-0.05-0.011-0.098-0.021-0.146-0.03
			c-7.92-1.606-16.074-1.916-22.98-0.872c-19.592,2.97-27.83,19.917-29.415,23.637l-10.787,20.585
			c-21.163,1.309-41.799,6.175-59.999,14.183c-19.577,8.612-35.972,20.66-47.414,34.844c-0.009,0.01-0.017,0.021-0.025,0.03
			c-0.574,0.713-1.136,1.43-1.684,2.151c-0.008,0.011-0.015,0.019-0.023,0.03c-0.009,0.011-0.017,0.022-0.024,0.031
			c-0.539,0.712-1.066,1.428-1.563,2.124l-0.093,0.131c-0.505,0.709-0.999,1.422-1.462,2.115l-0.114,0.17
			c-0.471,0.706-0.931,1.417-1.358,2.102l-0.155,0.25c-0.432,0.693-0.854,1.393-1.26,2.089l-0.172,0.3
			c-0.396,0.684-0.783,1.372-1.167,2.084l-0.193,0.366c-0.355,0.664-0.703,1.332-1.043,2.015l-0.228,0.468
			c-0.316,0.646-0.628,1.293-0.936,1.969l-0.251,0.563c-0.281,0.628-0.559,1.257-0.828,1.907l-0.272,0.678
			c-0.243,0.602-0.485,1.202-0.712,1.807c-0.076,0.203-0.149,0.408-0.222,0.612l-0.142,0.393c-0.184,0.508-0.367,1.017-0.541,1.536
			c-0.082,0.242-0.158,0.485-0.234,0.729l-0.135,0.424c-0.151,0.474-0.304,0.948-0.443,1.421c-0.085,0.288-0.164,0.577-0.243,0.866
			l-0.182,0.655c-0.096,0.339-0.191,0.679-0.295,1.084c-0.009,0.034-0.019,0.076-0.028,0.118c-0.082,0.325-0.158,0.65-0.233,0.978
			l-0.242,1.03c-0.04,0.166-0.079,0.331-0.115,0.496c-0.001,0.009-0.002,0.016-0.004,0.023c-0.003,0.012-0.006,0.023-0.008,0.034
			c-0.189,0.882-0.362,1.766-0.519,2.651c-2.363,13.431-0.177,24.516,6.496,32.951C30.735,185.807,39.686,191.045,52.392,194.619z"
			/>
		<path style="fill:#F1F1F1;" d="M51.539,193.766c15.018,5.198,34.925,7.021,57.944,9.128c17,1.556,34.578,3.164,52.441,6.308
			c17.577,3.093,34.211,7.399,50.297,11.563c17.175,4.447,33.405,8.648,47.063,10.175c5.898,0.963,12.157,1.707,18.341,1.707
			c15.199,0,29.789-4.564,37.758-21.264c0.039-0.081,0.078-0.161,0.11-0.233c0.018-0.039,0.036-0.08,0.053-0.119
			c0.266-0.582,0.526-1.184,0.787-1.835c0.015-0.035,0.027-0.072,0.042-0.107c0.314-0.806,0.623-1.63,0.891-2.421
			c0.012-0.032,0.039-0.111,0.051-0.146c0.275-0.821,0.538-1.677,0.77-2.499l0.091-0.319c0.22-0.796,0.425-1.616,0.62-2.462
			l0.099-0.42c0.224-1.002,0.414-1.955,0.586-2.928c0.136-0.767,0.254-1.534,0.367-2.346l0.05-0.334
			c0.033-0.237,0.06-0.479,0.09-0.718l0.141-1.206c0.031-0.26,0.062-0.518,0.088-0.782c0.029-0.294,0.052-0.591,0.074-0.887
			l0.044-0.537c0.035-0.421,0.07-0.844,0.097-1.273c0.02-0.327,0.033-0.653,0.046-0.98l0.024-0.553
			c0.018-0.392,0.034-0.783,0.045-1.152c0.007-0.332,0.011-0.664,0.013-0.996l0.004-0.559c0.003-0.384,0.005-0.766,0.001-1.173
			c-0.005-0.395-0.016-0.792-0.028-1.188l-0.011-0.361c-0.011-0.388-0.021-0.775-0.04-1.158c-0.02-0.427-0.046-0.855-0.075-1.284
			l-0.016-0.246c-0.025-0.388-0.051-0.777-0.082-1.16c-0.039-0.484-0.085-0.967-0.135-1.457c-0.041-0.42-0.085-0.841-0.131-1.233
			c-0.057-0.5-0.122-1-0.189-1.512c-0.054-0.401-0.108-0.802-0.167-1.193c-0.077-0.51-0.16-1.021-0.249-1.559
			c-0.063-0.371-0.128-0.74-0.196-1.123c-0.097-0.526-0.199-1.052-0.303-1.567c-0.074-0.377-0.154-0.752-0.227-1.085
			c-0.117-0.544-0.239-1.09-0.369-1.643c-0.08-0.343-0.163-0.683-0.246-1.026c-0.14-0.555-0.282-1.111-0.439-1.695l-0.26-0.942
			c-0.161-0.573-0.325-1.147-0.503-1.733l-0.271-0.88c-0.185-0.594-0.376-1.188-0.585-1.818l-0.264-0.77
			c-0.215-0.625-0.435-1.249-0.654-1.849l-0.268-0.718c-0.245-0.65-0.493-1.303-0.755-1.959l-0.23-0.561
			c-0.28-0.692-0.565-1.382-0.858-2.062l-0.175-0.395c-0.325-0.745-0.657-1.489-0.987-2.198l-0.085-0.184
			c-5.042-10.813-12.091-21.265-20.96-31.074c-3.244-4.07-6.682-7.523-10.226-10.275c-1.231-1.124-2.514-2.258-3.911-3.455h-0.001
			c-0.028-0.024-0.058-0.049-0.088-0.074c-10.09-8.572-21.325-16.144-33.554-22.465l0.155-5.957c0-0.007,0.002-0.105,0.002-0.113
			l0.066-3.52c0-0.015,0.001-0.105,0.001-0.12l0.006-0.481c0.128-9.42-0.052-16.178-0.55-20.658
			c-0.088-0.791-0.209-1.59-0.378-2.494c-0.039-0.206-0.08-0.412-0.126-0.64c-0.19-0.915-0.381-1.683-0.589-2.418
			c-0.015-0.05-0.029-0.101-0.045-0.15c-0.212-0.695-0.443-1.415-0.741-2.216c-0.068-0.185-0.139-0.367-0.198-0.519
			c-0.317-0.81-0.625-1.533-0.977-2.259c-0.033-0.07-0.069-0.141-0.106-0.213c-0.3-0.593-0.618-1.204-0.985-1.845
			c-0.101-0.18-0.206-0.358-0.305-0.524c-0.428-0.717-0.84-1.354-1.214-1.893c-0.078-0.114-0.159-0.227-0.243-0.342
			c-0.385-0.533-0.781-1.062-1.239-1.633c-0.115-0.145-0.231-0.289-0.336-0.416c-0.512-0.613-0.988-1.157-1.436-1.637
			c-0.105-0.112-0.214-0.224-0.278-0.287c-0.435-0.455-0.881-0.896-1.386-1.373c-0.15-0.143-0.301-0.284-0.445-0.416
			c-0.512-0.467-1.034-0.927-1.604-1.397c-0.113-0.093-0.23-0.182-0.367-0.29c-0.44-0.349-0.884-0.696-1.362-1.049l-0.573-0.419
			c-0.537-0.384-1.082-0.759-1.687-1.15l-0.534-0.334c-0.41-0.258-0.826-0.512-1.25-0.761c-0.234-0.135-0.468-0.273-0.722-0.417
			c-0.543-0.307-1.093-0.606-1.656-0.898c-0.189-0.097-0.382-0.191-0.573-0.286l-0.176-0.088c-0.366-0.182-0.733-0.359-1.172-0.566
			c-0.267-0.126-0.536-0.251-0.8-0.369c-0.518-0.232-1.038-0.458-1.58-0.682c-0.325-0.135-0.653-0.263-0.958-0.382
			c-0.324-0.128-0.649-0.254-1.023-0.395c-0.315-0.115-0.63-0.233-0.956-0.35c-0.386-0.135-0.771-0.267-1.168-0.399
			c-0.486-0.162-0.974-0.316-1.458-0.464c-0.277-0.087-0.556-0.17-0.789-0.237c-0.381-0.112-0.764-0.223-1.136-0.325l-0.706-0.188
			c-0.662-0.175-1.326-0.34-1.985-0.493l-0.754-0.171c-0.37-0.082-0.738-0.163-1.107-0.239c-0.05-0.01-0.098-0.02-0.146-0.03
			c-7.93-1.552-16.074-1.916-22.98-0.872c-19.592,2.971-27.83,19.917-29.415,23.637l-10.786,20.585
			c-21.164,1.309-41.8,6.175-60,14.184c-19.577,8.611-35.923,20.699-47.413,34.844c-0.01,0.009-0.018,0.02-0.026,0.029
			c-0.576,0.711-1.143,1.425-1.685,2.152c-0.008,0.01-0.015,0.018-0.022,0.03c-0.008,0.011-0.017,0.021-0.024,0.031
			c-0.548,0.704-1.066,1.427-1.563,2.123l-0.093,0.131c-0.505,0.709-0.999,1.422-1.462,2.115l-0.114,0.171
			c-0.471,0.705-0.931,1.416-1.358,2.101l-0.155,0.25c-0.432,0.694-0.853,1.393-1.26,2.089l-0.172,0.3
			c-0.396,0.685-0.782,1.373-1.166,2.084l-0.194,0.367c-0.354,0.664-0.703,1.332-1.043,2.015l-0.227,0.468
			c-0.316,0.645-0.629,1.293-0.938,1.969l-0.25,0.563c-0.282,0.628-0.559,1.256-0.829,1.906l-0.271,0.679
			c-0.244,0.602-0.486,1.202-0.712,1.806c-0.077,0.204-0.15,0.408-0.223,0.612l-0.142,0.394c-0.184,0.508-0.367,1.017-0.541,1.536
			c-0.082,0.243-0.158,0.486-0.234,0.729l-0.135,0.424c-0.15,0.475-0.304,0.948-0.443,1.421c-0.084,0.288-0.164,0.577-0.242,0.866
			l-0.182,0.655c-0.097,0.34-0.193,0.679-0.296,1.084c-0.009,0.035-0.017,0.076-0.028,0.118c-0.08,0.326-0.158,0.651-0.233,0.979
			l-0.242,1.029c-0.039,0.167-0.078,0.332-0.115,0.497c-0.001,0.008-0.002,0.015-0.003,0.022c-0.004,0.012-0.007,0.024-0.008,0.035
			c-0.19,0.882-0.363,1.765-0.52,2.651c-2.362,13.431-0.177,24.515,6.496,32.95C29.882,184.954,38.833,190.191,51.539,193.766z"/>
		<path style="fill:#E2E2E2;" d="M50.686,192.913c15.019,5.198,34.925,7.02,57.945,9.128c17,1.556,34.577,3.164,52.441,6.307
			c17.577,3.093,34.211,7.4,50.297,11.564c17.175,4.447,33.404,8.648,47.061,10.176c5.898,0.963,12.158,1.706,18.342,1.706
			c15.198,0,29.789-4.563,37.758-21.264c0.038-0.079,0.077-0.16,0.11-0.233c0.018-0.039,0.035-0.079,0.053-0.118
			c0.266-0.583,0.526-1.185,0.787-1.836c0.014-0.035,0.027-0.071,0.041-0.107c0.316-0.805,0.623-1.63,0.893-2.421
			c0.011-0.032,0.037-0.111,0.049-0.146c0.276-0.821,0.539-1.677,0.77-2.499l0.091-0.318c0.22-0.796,0.425-1.616,0.62-2.462
			l0.1-0.421c0.223-1.002,0.414-1.955,0.586-2.928c0.135-0.767,0.253-1.533,0.367-2.344l0.051-0.336
			c0.032-0.237,0.06-0.478,0.088-0.717l0.142-1.206c0.03-0.26,0.061-0.519,0.087-0.783c0.029-0.294,0.053-0.59,0.075-0.886
			l0.044-0.537c0.035-0.422,0.07-0.845,0.097-1.273c0.02-0.326,0.033-0.652,0.046-0.978l0.024-0.554
			c0.018-0.392,0.034-0.782,0.044-1.153c0.008-0.332,0.011-0.663,0.013-0.995l0.004-0.559c0.003-0.383,0.005-0.766,0.002-1.173
			c-0.005-0.395-0.017-0.791-0.028-1.188l-0.011-0.361c-0.011-0.388-0.022-0.775-0.04-1.158c-0.02-0.427-0.047-0.855-0.075-1.282
			l-0.016-0.247c-0.025-0.389-0.05-0.777-0.082-1.16c-0.039-0.484-0.086-0.968-0.136-1.458c-0.041-0.42-0.084-0.841-0.129-1.233
			c-0.058-0.5-0.123-1-0.19-1.511c-0.054-0.401-0.108-0.802-0.167-1.193c-0.076-0.51-0.159-1.021-0.249-1.559
			c-0.064-0.371-0.127-0.741-0.195-1.123c-0.097-0.526-0.198-1.053-0.303-1.567c-0.075-0.377-0.154-0.753-0.227-1.085
			c-0.118-0.545-0.239-1.09-0.369-1.643c-0.081-0.342-0.163-0.683-0.247-1.025c-0.139-0.556-0.281-1.112-0.438-1.696l-0.26-0.941
			c-0.161-0.574-0.326-1.148-0.503-1.734l-0.27-0.879c-0.186-0.595-0.376-1.188-0.586-1.818l-0.264-0.77
			c-0.214-0.625-0.434-1.25-0.653-1.85l-0.268-0.717c-0.245-0.651-0.492-1.303-0.755-1.96l-0.23-0.56
			c-0.281-0.693-0.565-1.383-0.859-2.061l-0.174-0.396c-0.326-0.745-0.658-1.49-0.987-2.199l-0.086-0.184
			c-5.04-10.811-12.091-21.264-20.96-31.072c-3.243-4.071-6.681-7.525-10.225-10.276c-1.232-1.124-2.514-2.258-3.911-3.454h-0.001
			c-0.028-0.025-0.059-0.051-0.088-0.076c-10.09-8.572-21.325-16.144-33.554-22.464l0.155-5.957c0-0.007,0.002-0.105,0.002-0.113
			l0.064-3.52c0-0.016,0.001-0.106,0.001-0.121l0.007-0.481c0.128-9.419-0.052-16.177-0.55-20.657
			c-0.089-0.792-0.21-1.591-0.379-2.494c-0.039-0.207-0.079-0.413-0.126-0.64c-0.189-0.915-0.381-1.684-0.588-2.419
			c-0.015-0.05-0.03-0.101-0.045-0.149c-0.213-0.695-0.443-1.416-0.741-2.216c-0.068-0.185-0.139-0.368-0.198-0.52
			c-0.317-0.809-0.626-1.533-0.977-2.259c-0.034-0.07-0.07-0.141-0.106-0.212c-0.3-0.593-0.618-1.204-0.985-1.846
			c-0.102-0.179-0.206-0.356-0.306-0.524c-0.427-0.716-0.84-1.352-1.213-1.892c-0.079-0.113-0.159-0.226-0.243-0.342
			c-0.385-0.533-0.781-1.062-1.239-1.633c-0.115-0.143-0.231-0.288-0.337-0.415c-0.511-0.613-0.987-1.158-1.436-1.636
			c-0.105-0.113-0.214-0.225-0.279-0.289c-0.434-0.455-0.88-0.896-1.385-1.373c-0.15-0.143-0.301-0.284-0.445-0.416
			c-0.512-0.467-1.034-0.927-1.605-1.396c-0.113-0.093-0.23-0.183-0.367-0.291c-0.44-0.349-0.885-0.695-1.362-1.048l-0.573-0.42
			c-0.537-0.383-1.083-0.758-1.687-1.15L224.7,22.88c-0.411-0.257-0.827-0.511-1.25-0.76c-0.234-0.136-0.468-0.273-0.723-0.417
			c-0.543-0.307-1.092-0.606-1.655-0.897c-0.19-0.098-0.383-0.192-0.573-0.287l-0.176-0.087c-0.366-0.182-0.734-0.36-1.172-0.566
			c-0.268-0.125-0.536-0.251-0.8-0.368c-0.518-0.233-1.039-0.459-1.58-0.682c-0.326-0.135-0.653-0.264-0.958-0.383
			c-0.324-0.128-0.649-0.253-1.024-0.394c-0.314-0.116-0.629-0.233-0.955-0.35c-0.386-0.136-0.773-0.267-1.168-0.398
			c-0.486-0.162-0.975-0.316-1.459-0.465c-0.277-0.086-0.555-0.169-0.788-0.237c-0.381-0.111-0.764-0.223-1.136-0.325l-0.707-0.188
			c-0.661-0.175-1.326-0.34-1.984-0.492l-0.754-0.172c-0.37-0.082-0.738-0.162-1.106-0.238c-0.05-0.011-0.098-0.021-0.148-0.03
			c-7.93-1.552-16.073-1.916-22.979-0.872c-19.592,2.97-27.83,19.917-29.415,23.638l-10.787,20.584
			c-21.163,1.309-41.799,6.175-59.999,14.183C61.827,81.288,45.481,93.375,33.99,107.52c-0.009,0.01-0.018,0.021-0.025,0.03
			c-0.577,0.711-1.144,1.424-1.685,2.151c-0.008,0.011-0.015,0.02-0.022,0.03c-0.009,0.011-0.017,0.021-0.024,0.031
			c-0.548,0.704-1.066,1.428-1.564,2.124l-0.093,0.13c-0.505,0.71-0.999,1.423-1.462,2.115l-0.114,0.171
			c-0.471,0.706-0.931,1.417-1.358,2.102l-0.155,0.251c-0.432,0.692-0.853,1.391-1.26,2.088l-0.172,0.3
			c-0.396,0.684-0.783,1.372-1.167,2.083l-0.193,0.367c-0.354,0.664-0.703,1.332-1.043,2.015l-0.228,0.468
			c-0.316,0.646-0.628,1.293-0.936,1.969l-0.251,0.563c-0.281,0.628-0.559,1.257-0.828,1.907l-0.273,0.678
			c-0.244,0.602-0.485,1.202-0.712,1.807c-0.076,0.203-0.149,0.408-0.222,0.612l-0.142,0.394c-0.184,0.508-0.367,1.017-0.542,1.536
			c-0.081,0.242-0.157,0.485-0.233,0.729l-0.135,0.423c-0.151,0.474-0.304,0.948-0.443,1.421c-0.085,0.288-0.164,0.577-0.243,0.866
			l-0.182,0.655c-0.096,0.339-0.193,0.678-0.295,1.084c-0.009,0.034-0.019,0.076-0.028,0.118c-0.08,0.326-0.158,0.65-0.233,0.978
			l-0.242,1.03c-0.04,0.166-0.079,0.331-0.115,0.496c-0.002,0.009-0.002,0.017-0.004,0.023c-0.003,0.012-0.006,0.023-0.008,0.034
			c-0.189,0.882-0.362,1.766-0.519,2.651c-2.363,13.431-0.177,24.516,6.496,32.95C29.029,184.101,37.98,189.339,50.686,192.913z"/>
		<path style="fill:#D4D4D4;" d="M49.833,192.06c15.02,5.199,34.925,7.021,57.945,9.128c17,1.557,34.577,3.165,52.44,6.307
			c17.578,3.093,34.212,7.399,50.298,11.566c17.175,4.446,33.404,8.648,47.062,10.175c5.898,0.963,12.158,1.705,18.342,1.705
			c15.198,0,29.788-4.563,37.758-21.264c0.038-0.079,0.077-0.159,0.109-0.233c0.019-0.039,0.036-0.078,0.054-0.117
			c0.266-0.584,0.525-1.185,0.787-1.837c0.014-0.034,0.026-0.07,0.042-0.107c0.315-0.804,0.622-1.63,0.891-2.42
			c0.012-0.033,0.037-0.112,0.049-0.146c0.276-0.821,0.54-1.675,0.77-2.499l0.091-0.317c0.221-0.796,0.424-1.616,0.619-2.462
			l0.1-0.422c0.225-1.001,0.414-1.954,0.587-2.927c0.135-0.767,0.253-1.533,0.367-2.345l0.05-0.334
			c0.032-0.238,0.06-0.479,0.088-0.718l0.143-1.206c0.031-0.26,0.061-0.518,0.087-0.783c0.028-0.294,0.052-0.59,0.074-0.886
			l0.045-0.537c0.035-0.422,0.07-0.845,0.097-1.273c0.018-0.326,0.033-0.652,0.046-0.979l0.024-0.553
			c0.018-0.392,0.033-0.783,0.043-1.154c0.009-0.332,0.011-0.662,0.014-0.994l0.004-0.56c0.004-0.383,0.004-0.767,0.002-1.173
			c-0.005-0.395-0.016-0.791-0.029-1.188l-0.01-0.361c-0.011-0.388-0.022-0.775-0.04-1.159c-0.021-0.426-0.048-0.854-0.076-1.282
			l-0.015-0.246c-0.025-0.389-0.051-0.777-0.082-1.16c-0.039-0.484-0.086-0.968-0.135-1.458c-0.042-0.421-0.086-0.841-0.131-1.233
			c-0.058-0.5-0.122-1.001-0.19-1.511c-0.053-0.401-0.108-0.802-0.167-1.193c-0.075-0.511-0.158-1.021-0.249-1.559
			c-0.061-0.371-0.126-0.741-0.194-1.124c-0.097-0.525-0.199-1.053-0.303-1.566c-0.075-0.377-0.155-0.753-0.227-1.086
			c-0.119-0.544-0.239-1.089-0.369-1.643c-0.08-0.342-0.163-0.683-0.248-1.025c-0.138-0.556-0.281-1.112-0.437-1.697l-0.26-0.941
			c-0.161-0.573-0.327-1.146-0.503-1.733l-0.27-0.879c-0.186-0.596-0.377-1.189-0.587-1.818l-0.262-0.77
			c-0.215-0.626-0.436-1.25-0.654-1.849l-0.269-0.718c-0.245-0.651-0.492-1.303-0.755-1.96l-0.229-0.56
			c-0.282-0.693-0.566-1.384-0.858-2.061l-0.175-0.396c-0.325-0.745-0.658-1.49-0.987-2.2l-0.086-0.183
			c-5.041-10.811-12.092-21.265-20.96-31.073c-3.243-4.07-6.681-7.524-10.226-10.275c-1.231-1.124-2.513-2.258-3.91-3.455
			c0,0,0,0-0.001,0c-0.028-0.024-0.059-0.05-0.088-0.076c-10.091-8.57-21.325-16.143-33.554-22.464l0.155-5.956
			c0-0.007,0.002-0.105,0.002-0.113l0.063-3.52c0.001-0.016,0.002-0.107,0.002-0.121l0.007-0.482
			c0.128-9.418-0.052-16.176-0.55-20.656c-0.089-0.791-0.21-1.591-0.379-2.494c-0.039-0.208-0.079-0.414-0.126-0.64
			c-0.19-0.915-0.381-1.684-0.588-2.419c-0.016-0.05-0.03-0.1-0.046-0.149c-0.213-0.695-0.443-1.416-0.74-2.217
			c-0.068-0.185-0.14-0.367-0.198-0.519c-0.318-0.809-0.626-1.533-0.977-2.26c-0.034-0.07-0.07-0.14-0.107-0.211
			c-0.3-0.594-0.618-1.204-0.985-1.846c-0.101-0.179-0.206-0.357-0.305-0.525c-0.428-0.715-0.84-1.351-1.213-1.893
			c-0.079-0.113-0.16-0.226-0.243-0.341c-0.386-0.533-0.781-1.063-1.239-1.633c-0.115-0.144-0.232-0.289-0.337-0.415
			c-0.511-0.614-0.987-1.158-1.436-1.637c-0.105-0.113-0.215-0.225-0.279-0.288c-0.435-0.454-0.88-0.896-1.385-1.373
			c-0.15-0.143-0.301-0.285-0.445-0.416c-0.512-0.467-1.035-0.927-1.605-1.396c-0.113-0.093-0.23-0.184-0.367-0.291
			c-0.441-0.349-0.885-0.696-1.362-1.049l-0.573-0.42c-0.537-0.382-1.083-0.757-1.688-1.149l-0.533-0.335
			c-0.411-0.256-0.827-0.51-1.25-0.759c-0.234-0.136-0.468-0.273-0.723-0.417c-0.543-0.307-1.092-0.605-1.655-0.898
			c-0.191-0.098-0.383-0.192-0.573-0.286l-0.176-0.087c-0.366-0.182-0.734-0.36-1.172-0.566c-0.268-0.125-0.536-0.252-0.801-0.368
			c-0.517-0.232-1.039-0.459-1.579-0.683c-0.326-0.134-0.653-0.263-0.958-0.382c-0.324-0.129-0.65-0.253-1.025-0.395
			c-0.315-0.115-0.629-0.233-0.955-0.349c-0.386-0.136-0.773-0.268-1.169-0.398c-0.486-0.162-0.974-0.317-1.458-0.465
			c-0.277-0.086-0.556-0.17-0.788-0.238c-0.382-0.111-0.764-0.223-1.136-0.324l-0.707-0.189c-0.661-0.175-1.326-0.339-1.984-0.491
			l-0.755-0.172c-0.369-0.082-0.737-0.162-1.106-0.238c-0.05-0.011-0.099-0.02-0.147-0.03c-7.93-1.553-16.073-1.916-22.979-0.872
			c-19.592,2.97-27.83,19.917-29.416,23.637l-10.786,20.585c-21.163,1.308-41.8,6.175-59.999,14.183
			c-19.577,8.611-35.924,20.699-47.414,34.844c-0.009,0.01-0.018,0.02-0.025,0.03c-0.577,0.71-1.144,1.423-1.685,2.151
			c-0.009,0.011-0.016,0.02-0.022,0.03c-0.009,0.011-0.018,0.021-0.024,0.031c-0.549,0.704-1.066,1.428-1.564,2.123l-0.092,0.131
			c-0.505,0.71-0.999,1.423-1.462,2.114l-0.114,0.172c-0.471,0.706-0.931,1.417-1.359,2.101l-0.154,0.25
			c-0.433,0.693-0.854,1.392-1.26,2.088l-0.172,0.301c-0.396,0.684-0.783,1.372-1.167,2.083l-0.194,0.367
			c-0.354,0.664-0.703,1.332-1.042,2.015l-0.227,0.468c-0.316,0.645-0.628,1.293-0.938,1.968l-0.25,0.564
			c-0.281,0.627-0.559,1.256-0.828,1.907l-0.272,0.678c-0.244,0.602-0.485,1.202-0.712,1.807c-0.076,0.203-0.149,0.408-0.222,0.612
			l-0.142,0.393c-0.184,0.509-0.367,1.018-0.542,1.537c-0.081,0.242-0.157,0.485-0.233,0.729l-0.135,0.424
			c-0.152,0.473-0.304,0.947-0.444,1.421c-0.084,0.288-0.163,0.577-0.242,0.866l-0.182,0.655c-0.096,0.339-0.194,0.677-0.295,1.084
			c-0.01,0.033-0.019,0.075-0.028,0.118c-0.08,0.325-0.158,0.65-0.233,0.978l-0.242,1.03c-0.04,0.166-0.08,0.331-0.115,0.495
			c-0.002,0.01-0.003,0.017-0.004,0.024c-0.004,0.011-0.006,0.023-0.008,0.034c-0.19,0.881-0.362,1.766-0.518,2.651
			c-2.363,13.43-0.178,24.516,6.496,32.95C28.177,183.247,37.127,188.486,49.833,192.06z"/>
		<path style="fill:#C5C5C5;" d="M48.98,191.206c15.02,5.199,34.925,7.021,57.945,9.129c17,1.556,34.577,3.164,52.44,6.307
			c17.578,3.093,34.212,7.399,50.298,11.564c17.175,4.446,33.404,8.649,47.062,10.175c5.898,0.963,12.158,1.706,18.342,1.706
			c15.198,0,29.789-4.563,37.758-21.264c0.038-0.08,0.077-0.16,0.11-0.234c0.018-0.038,0.035-0.078,0.053-0.117
			c0.266-0.584,0.526-1.184,0.787-1.836c0.014-0.035,0.027-0.071,0.042-0.107c0.314-0.805,0.622-1.631,0.891-2.421
			c0.012-0.032,0.038-0.112,0.05-0.146c0.276-0.822,0.539-1.677,0.77-2.499l0.091-0.318c0.221-0.796,0.426-1.616,0.62-2.462
			l0.099-0.421c0.225-1.002,0.415-1.955,0.587-2.928c0.135-0.767,0.253-1.533,0.367-2.345l0.05-0.334
			c0.033-0.238,0.06-0.479,0.089-0.718l0.142-1.206c0.031-0.26,0.062-0.518,0.087-0.783c0.029-0.294,0.052-0.59,0.075-0.886
			l0.044-0.537c0.035-0.422,0.07-0.845,0.097-1.273c0.02-0.326,0.033-0.652,0.046-0.98l0.024-0.553
			c0.018-0.392,0.034-0.783,0.044-1.153c0.008-0.332,0.011-0.663,0.013-0.995l0.004-0.56c0.004-0.383,0.006-0.767,0.002-1.173
			c-0.005-0.395-0.016-0.791-0.028-1.188l-0.011-0.361c-0.011-0.388-0.022-0.775-0.04-1.158c-0.021-0.427-0.048-0.855-0.075-1.283
			l-0.016-0.246c-0.025-0.389-0.051-0.777-0.082-1.16c-0.039-0.484-0.086-0.968-0.135-1.458c-0.042-0.421-0.085-0.841-0.131-1.233
			c-0.057-0.5-0.122-1-0.189-1.511c-0.054-0.401-0.107-0.802-0.167-1.193c-0.076-0.511-0.159-1.021-0.249-1.559
			c-0.063-0.371-0.127-0.741-0.195-1.123c-0.097-0.526-0.199-1.053-0.303-1.567c-0.075-0.377-0.154-0.753-0.227-1.086
			c-0.117-0.543-0.239-1.089-0.369-1.643c-0.08-0.342-0.163-0.683-0.248-1.025c-0.138-0.556-0.281-1.112-0.436-1.696l-0.26-0.942
			c-0.161-0.573-0.325-1.146-0.503-1.733l-0.271-0.879c-0.185-0.595-0.376-1.188-0.586-1.818l-0.263-0.77
			c-0.215-0.626-0.435-1.25-0.654-1.849l-0.269-0.718c-0.245-0.651-0.492-1.303-0.755-1.96l-0.229-0.56
			c-0.281-0.693-0.565-1.384-0.858-2.061l-0.175-0.396c-0.325-0.745-0.658-1.49-0.987-2.199l-0.086-0.184
			c-5.041-10.811-12.091-21.264-20.96-31.073c-3.243-4.07-6.681-7.524-10.226-10.275c-1.23-1.124-2.513-2.258-3.91-3.455h-0.001
			c-0.028-0.024-0.059-0.05-0.088-0.074c-10.09-8.572-21.325-16.145-33.554-22.465l0.155-5.957c0-0.007,0.002-0.105,0.002-0.113
			l0.063-3.52c0.001-0.016,0.002-0.107,0.002-0.121l0.007-0.48c0.128-9.42-0.052-16.178-0.55-20.658
			c-0.089-0.791-0.21-1.591-0.379-2.494c-0.039-0.207-0.079-0.412-0.126-0.64c-0.189-0.915-0.381-1.684-0.588-2.419
			c-0.015-0.05-0.03-0.1-0.045-0.149c-0.214-0.695-0.443-1.416-0.741-2.216c-0.068-0.186-0.139-0.368-0.198-0.52
			c-0.317-0.809-0.626-1.533-0.977-2.259c-0.034-0.07-0.07-0.14-0.106-0.212c-0.3-0.593-0.618-1.204-0.985-1.846
			c-0.102-0.179-0.206-0.357-0.306-0.525c-0.427-0.715-0.84-1.352-1.213-1.893c-0.078-0.112-0.16-0.225-0.243-0.341
			c-0.385-0.533-0.781-1.062-1.239-1.633c-0.115-0.144-0.231-0.289-0.337-0.415c-0.511-0.613-0.987-1.158-1.436-1.637
			c-0.105-0.113-0.214-0.225-0.279-0.288c-0.434-0.454-0.88-0.896-1.385-1.373c-0.15-0.143-0.301-0.284-0.445-0.416
			c-0.512-0.467-1.034-0.927-1.605-1.396c-0.113-0.093-0.23-0.183-0.367-0.291c-0.44-0.349-0.885-0.695-1.362-1.048l-0.573-0.42
			c-0.537-0.383-1.083-0.758-1.687-1.15l-0.533-0.334c-0.411-0.257-0.827-0.511-1.25-0.76c-0.234-0.136-0.468-0.273-0.723-0.417
			c-0.543-0.307-1.092-0.606-1.655-0.898c-0.19-0.099-0.383-0.192-0.573-0.287l-0.176-0.087c-0.366-0.182-0.734-0.36-1.172-0.566
			c-0.268-0.125-0.536-0.251-0.801-0.368c-0.517-0.232-1.039-0.459-1.579-0.683c-0.326-0.134-0.653-0.263-0.958-0.382
			c-0.324-0.128-0.649-0.253-1.024-0.393c-0.314-0.116-0.629-0.233-0.955-0.35c-0.386-0.136-0.773-0.268-1.168-0.399
			c-0.486-0.162-0.975-0.316-1.459-0.465c-0.277-0.086-0.555-0.169-0.788-0.238c-0.381-0.111-0.764-0.223-1.136-0.324l-0.707-0.188
			c-0.661-0.174-1.326-0.34-1.984-0.492l-0.754-0.172c-0.37-0.082-0.738-0.162-1.106-0.238c-0.05-0.011-0.098-0.021-0.147-0.03
			c-7.93-1.552-16.073-1.916-22.979-0.872c-19.592,2.97-27.83,19.917-29.415,23.637l-10.787,20.585
			c-21.163,1.308-41.799,6.175-59.999,14.183c-19.577,8.611-35.923,20.7-47.414,34.844c-0.009,0.01-0.018,0.021-0.025,0.03
			c-0.577,0.711-1.144,1.424-1.685,2.151c-0.008,0.011-0.016,0.02-0.022,0.03c-0.009,0.011-0.017,0.021-0.024,0.031
			c-0.548,0.704-1.066,1.428-1.565,2.124l-0.092,0.13c-0.505,0.71-0.999,1.423-1.462,2.115l-0.114,0.171
			c-0.471,0.706-0.931,1.417-1.358,2.101l-0.155,0.25c-0.432,0.693-0.854,1.392-1.26,2.089l-0.172,0.3
			c-0.396,0.684-0.783,1.372-1.167,2.083l-0.194,0.367c-0.354,0.664-0.702,1.332-1.042,2.015l-0.228,0.468
			c-0.316,0.646-0.628,1.293-0.938,1.969l-0.25,0.563c-0.281,0.628-0.559,1.257-0.828,1.907l-0.272,0.678
			c-0.244,0.602-0.485,1.202-0.712,1.807c-0.076,0.203-0.149,0.408-0.222,0.612l-0.142,0.393c-0.184,0.509-0.367,1.018-0.542,1.537
			c-0.081,0.242-0.157,0.485-0.233,0.729l-0.135,0.424c-0.152,0.474-0.304,0.947-0.443,1.421c-0.085,0.288-0.164,0.577-0.243,0.866
			l-0.182,0.655c-0.096,0.339-0.194,0.677-0.295,1.084c-0.009,0.034-0.019,0.075-0.028,0.118c-0.08,0.326-0.158,0.65-0.233,0.978
			l-0.242,1.03c-0.04,0.166-0.079,0.331-0.115,0.496c-0.002,0.009-0.003,0.016-0.004,0.023c-0.003,0.012-0.006,0.023-0.008,0.034
			c-0.19,0.882-0.362,1.766-0.519,2.651c-2.363,13.43-0.178,24.516,6.496,32.95C27.323,182.393,36.274,187.633,48.98,191.206z"/>
		<path style="fill:#B7B7B7;" d="M48.127,190.355c15.02,5.198,34.924,7.02,57.945,9.127c17,1.557,34.577,3.165,52.44,6.307
			c17.578,3.094,34.212,7.4,50.298,11.564c17.175,4.447,33.404,8.649,47.062,10.176c5.897,0.963,12.158,1.706,18.342,1.706
			c15.198,0,29.789-4.564,37.758-21.264c0.038-0.081,0.077-0.161,0.11-0.233c0.017-0.039,0.035-0.079,0.053-0.118
			c0.266-0.583,0.525-1.184,0.787-1.836c0.014-0.035,0.026-0.072,0.041-0.107c0.315-0.806,0.623-1.63,0.892-2.421
			c0.012-0.032,0.038-0.112,0.05-0.145c0.276-0.822,0.539-1.677,0.77-2.499l0.091-0.318c0.22-0.796,0.425-1.616,0.62-2.462
			l0.1-0.421c0.223-1.002,0.414-1.955,0.586-2.928c0.135-0.767,0.253-1.533,0.367-2.345l0.051-0.335
			c0.032-0.237,0.06-0.477,0.088-0.717l0.142-1.206c0.03-0.26,0.061-0.519,0.087-0.783c0.029-0.294,0.053-0.59,0.075-0.886
			l0.044-0.537c0.035-0.422,0.07-0.846,0.097-1.273c0.02-0.326,0.033-0.652,0.046-0.979l0.024-0.553
			c0.018-0.392,0.034-0.783,0.044-1.153c0.008-0.332,0.011-0.663,0.013-0.995l0.004-0.56c0.003-0.383,0.005-0.767,0.001-1.173
			c-0.004-0.395-0.016-0.791-0.027-1.188l-0.011-0.361c-0.011-0.388-0.022-0.775-0.04-1.158c-0.021-0.427-0.048-0.854-0.075-1.283
			l-0.016-0.246c-0.025-0.389-0.05-0.777-0.082-1.16c-0.039-0.484-0.086-0.968-0.136-1.458c-0.041-0.421-0.084-0.841-0.129-1.233
			c-0.059-0.5-0.123-1-0.19-1.511c-0.054-0.401-0.108-0.802-0.167-1.193c-0.076-0.51-0.159-1.021-0.249-1.559
			c-0.064-0.371-0.127-0.741-0.195-1.123c-0.097-0.526-0.199-1.053-0.303-1.567c-0.075-0.377-0.155-0.753-0.227-1.085
			c-0.118-0.545-0.239-1.09-0.369-1.644c-0.081-0.343-0.163-0.683-0.248-1.025c-0.138-0.556-0.28-1.112-0.437-1.696l-0.26-0.941
			c-0.161-0.574-0.326-1.147-0.503-1.734l-0.271-0.879c-0.186-0.595-0.376-1.188-0.586-1.818l-0.264-0.77
			c-0.214-0.625-0.434-1.25-0.653-1.85l-0.268-0.717c-0.245-0.651-0.492-1.303-0.755-1.96l-0.229-0.56
			c-0.281-0.693-0.565-1.384-0.859-2.062l-0.174-0.395c-0.326-0.746-0.658-1.49-0.987-2.199l-0.086-0.184
			c-5.041-10.811-12.091-21.264-20.96-31.073c-3.243-4.07-6.681-7.524-10.226-10.275c-1.23-1.124-2.513-2.258-3.91-3.455
			c0,0,0,0-0.001,0c-0.028-0.024-0.059-0.05-0.088-0.075c-10.091-8.572-21.325-16.145-33.554-22.464l0.155-5.957
			c0-0.007,0.002-0.105,0.002-0.113l0.063-3.52c0.001-0.016,0.002-0.106,0.002-0.122l0.007-0.48
			c0.128-9.419-0.052-16.177-0.55-20.657c-0.089-0.792-0.21-1.591-0.379-2.494c-0.039-0.207-0.079-0.413-0.126-0.64
			c-0.189-0.915-0.381-1.684-0.588-2.419c-0.016-0.05-0.03-0.101-0.045-0.149c-0.214-0.695-0.443-1.416-0.741-2.217
			c-0.068-0.184-0.14-0.367-0.198-0.52c-0.318-0.808-0.626-1.532-0.977-2.258c-0.034-0.07-0.07-0.141-0.107-0.212
			c-0.3-0.594-0.618-1.204-0.985-1.846c-0.102-0.179-0.206-0.357-0.307-0.525c-0.426-0.715-0.839-1.352-1.212-1.893
			c-0.079-0.113-0.16-0.226-0.243-0.341c-0.386-0.533-0.781-1.062-1.239-1.633c-0.115-0.144-0.232-0.289-0.337-0.415
			c-0.512-0.614-0.987-1.158-1.436-1.637c-0.105-0.112-0.214-0.224-0.279-0.288c-0.434-0.455-0.88-0.896-1.385-1.373
			c-0.15-0.143-0.301-0.284-0.445-0.416c-0.512-0.467-1.034-0.927-1.605-1.396c-0.112-0.093-0.229-0.184-0.366-0.291
			c-0.441-0.349-0.885-0.695-1.362-1.048l-0.573-0.42c-0.538-0.383-1.083-0.758-1.688-1.15l-0.532-0.334
			c-0.411-0.257-0.827-0.511-1.25-0.76c-0.234-0.136-0.468-0.273-0.723-0.417c-0.543-0.307-1.092-0.606-1.655-0.897
			c-0.19-0.099-0.383-0.193-0.573-0.287l-0.176-0.087c-0.366-0.182-0.734-0.36-1.172-0.566c-0.268-0.125-0.536-0.251-0.801-0.368
			c-0.517-0.233-1.039-0.459-1.579-0.683c-0.326-0.134-0.653-0.263-0.958-0.382c-0.324-0.128-0.649-0.253-1.024-0.393
			c-0.314-0.116-0.629-0.233-0.955-0.35c-0.386-0.136-0.773-0.267-1.168-0.398c-0.486-0.162-0.975-0.316-1.459-0.465
			c-0.277-0.086-0.555-0.17-0.788-0.238c-0.382-0.111-0.764-0.223-1.136-0.324l-0.707-0.188c-0.661-0.175-1.326-0.34-1.984-0.492
			l-0.754-0.172c-0.37-0.082-0.738-0.162-1.107-0.238c-0.049-0.011-0.097-0.021-0.146-0.03c-7.93-1.553-16.073-1.916-22.979-0.872
			c-19.592,2.97-27.83,19.917-29.415,23.637l-10.788,20.585c-21.162,1.309-41.798,6.175-59.998,14.183
			c-19.577,8.612-35.924,20.699-47.414,34.844c-0.009,0.01-0.018,0.021-0.025,0.03c-0.577,0.71-1.145,1.423-1.685,2.151
			c-0.009,0.011-0.016,0.02-0.022,0.03c-0.009,0.011-0.017,0.021-0.024,0.031c-0.548,0.704-1.066,1.428-1.564,2.124l-0.093,0.13
			c-0.504,0.71-0.998,1.423-1.461,2.115l-0.114,0.171c-0.471,0.706-0.931,1.417-1.358,2.102l-0.155,0.25
			c-0.432,0.693-0.854,1.392-1.26,2.089l-0.172,0.3c-0.396,0.684-0.783,1.372-1.167,2.083l-0.194,0.367
			c-0.354,0.664-0.702,1.332-1.042,2.015l-0.228,0.468c-0.316,0.646-0.628,1.293-0.938,1.969l-0.25,0.564
			c-0.281,0.628-0.559,1.257-0.828,1.907l-0.272,0.678c-0.244,0.601-0.485,1.202-0.712,1.807c-0.076,0.203-0.149,0.408-0.222,0.612
			l-0.142,0.394c-0.184,0.508-0.367,1.017-0.542,1.536c-0.081,0.242-0.157,0.485-0.233,0.729l-0.135,0.424
			c-0.152,0.474-0.304,0.948-0.443,1.421c-0.085,0.287-0.164,0.577-0.243,0.866l-0.182,0.655c-0.096,0.339-0.194,0.678-0.295,1.084
			c-0.01,0.034-0.019,0.076-0.029,0.118c-0.079,0.325-0.157,0.65-0.232,0.977l-0.242,1.03c-0.04,0.166-0.079,0.331-0.115,0.496
			c-0.002,0.009-0.003,0.016-0.004,0.023c-0.004,0.012-0.006,0.023-0.008,0.034c-0.189,0.882-0.363,1.766-0.519,2.651
			c-2.363,13.43-0.178,24.516,6.496,32.95C26.471,181.541,35.42,186.78,48.127,190.355z"/>
		<path style="fill:#A8A8A8;" d="M47.274,189.501c15.02,5.198,34.924,7.02,57.945,9.127c17,1.557,34.577,3.165,52.44,6.307
			c17.578,3.094,34.212,7.4,50.298,11.564c17.175,4.447,33.404,8.648,47.062,10.176c5.897,0.963,12.158,1.706,18.342,1.706
			c15.198,0,29.789-4.563,37.758-21.264c0.038-0.079,0.077-0.161,0.11-0.233c0.018-0.039,0.035-0.079,0.053-0.118
			c0.266-0.583,0.526-1.184,0.787-1.836c0.014-0.035,0.027-0.071,0.041-0.107c0.315-0.805,0.623-1.63,0.892-2.421
			c0.012-0.032,0.038-0.112,0.05-0.146c0.276-0.822,0.539-1.677,0.77-2.499l0.091-0.318c0.22-0.796,0.425-1.616,0.62-2.462
			l0.1-0.421c0.223-1.002,0.414-1.955,0.586-2.928c0.135-0.767,0.253-1.533,0.367-2.345l0.051-0.335
			c0.032-0.237,0.06-0.477,0.088-0.717l0.142-1.206c0.03-0.26,0.061-0.519,0.087-0.783c0.029-0.294,0.053-0.59,0.075-0.886
			l0.044-0.537c0.035-0.422,0.07-0.846,0.097-1.273c0.02-0.326,0.033-0.652,0.046-0.979l0.024-0.553
			c0.018-0.392,0.034-0.783,0.044-1.153c0.008-0.332,0.011-0.663,0.013-0.995l0.004-0.56c0.003-0.383,0.005-0.767,0.001-1.173
			c-0.004-0.395-0.016-0.791-0.027-1.188l-0.011-0.361c-0.011-0.388-0.023-0.775-0.04-1.158c-0.021-0.427-0.048-0.854-0.075-1.283
			l-0.016-0.246c-0.025-0.389-0.05-0.777-0.082-1.16c-0.039-0.484-0.086-0.968-0.136-1.458c-0.041-0.421-0.084-0.841-0.129-1.233
			c-0.059-0.499-0.123-1-0.19-1.511c-0.054-0.401-0.108-0.802-0.167-1.193c-0.076-0.51-0.159-1.021-0.249-1.559
			c-0.064-0.371-0.127-0.741-0.195-1.123c-0.097-0.526-0.199-1.053-0.303-1.567c-0.075-0.377-0.154-0.753-0.227-1.085
			c-0.118-0.544-0.239-1.09-0.369-1.644c-0.081-0.343-0.163-0.683-0.248-1.025c-0.138-0.556-0.28-1.112-0.436-1.696l-0.26-0.941
			c-0.161-0.574-0.326-1.147-0.503-1.734l-0.271-0.879c-0.186-0.595-0.376-1.188-0.586-1.818l-0.264-0.77
			c-0.214-0.625-0.434-1.25-0.653-1.85l-0.269-0.717c-0.245-0.651-0.492-1.303-0.755-1.96l-0.229-0.559
			c-0.281-0.693-0.565-1.384-0.859-2.062l-0.174-0.396c-0.326-0.746-0.658-1.49-0.987-2.199l-0.086-0.184
			c-5.041-10.811-12.091-21.264-20.96-31.073c-3.243-4.07-6.681-7.524-10.226-10.275c-1.231-1.124-2.513-2.258-3.91-3.455h-0.001
			c-0.028-0.024-0.059-0.05-0.088-0.075c-10.09-8.571-21.325-16.145-33.554-22.464l0.155-5.957c0-0.007,0.002-0.105,0.002-0.113
			l0.064-3.52c0.001-0.016,0.002-0.106,0.002-0.122l0.007-0.48c0.128-9.419-0.052-16.177-0.55-20.657
			c-0.089-0.792-0.21-1.591-0.379-2.494c-0.039-0.207-0.079-0.413-0.126-0.64c-0.189-0.915-0.38-1.684-0.588-2.419
			c-0.015-0.05-0.029-0.101-0.045-0.149c-0.214-0.695-0.443-1.416-0.741-2.217c-0.068-0.184-0.139-0.367-0.198-0.519
			c-0.317-0.808-0.626-1.532-0.977-2.258c-0.034-0.07-0.07-0.14-0.107-0.212c-0.3-0.593-0.618-1.204-0.985-1.846
			c-0.102-0.179-0.206-0.357-0.307-0.525c-0.426-0.715-0.839-1.352-1.212-1.893c-0.078-0.112-0.16-0.225-0.243-0.341
			c-0.385-0.533-0.781-1.062-1.239-1.633c-0.115-0.143-0.231-0.288-0.337-0.415c-0.512-0.613-0.987-1.158-1.436-1.637
			c-0.106-0.112-0.214-0.224-0.279-0.288c-0.434-0.455-0.88-0.896-1.385-1.373c-0.15-0.142-0.301-0.284-0.445-0.416
			c-0.512-0.467-1.034-0.927-1.605-1.396c-0.112-0.093-0.229-0.184-0.366-0.291c-0.441-0.349-0.885-0.695-1.362-1.048l-0.573-0.42
			c-0.538-0.383-1.083-0.758-1.689-1.15l-0.532-0.334c-0.411-0.257-0.827-0.511-1.25-0.76c-0.234-0.136-0.468-0.273-0.723-0.417
			c-0.543-0.307-1.092-0.606-1.655-0.898c-0.19-0.099-0.383-0.193-0.573-0.287l-0.176-0.087c-0.366-0.182-0.734-0.36-1.172-0.566
			c-0.268-0.125-0.536-0.251-0.801-0.368c-0.517-0.232-1.039-0.459-1.579-0.683c-0.326-0.134-0.653-0.263-0.958-0.382
			c-0.324-0.128-0.649-0.253-1.024-0.394c-0.314-0.116-0.629-0.233-0.955-0.35c-0.386-0.136-0.773-0.267-1.168-0.398
			c-0.486-0.162-0.975-0.316-1.459-0.465c-0.277-0.086-0.555-0.169-0.788-0.238c-0.382-0.111-0.764-0.223-1.136-0.324l-0.707-0.188
			c-0.661-0.175-1.326-0.34-1.984-0.492L202.426,12c-0.37-0.082-0.738-0.162-1.107-0.238c-0.049-0.011-0.097-0.019-0.147-0.03
			c-7.929-1.552-16.073-1.916-22.978-0.872c-19.592,2.97-27.83,19.917-29.415,23.637L137.99,55.081
			c-21.162,1.309-41.798,6.175-59.998,14.183c-19.577,8.612-35.923,20.7-47.414,34.844c-0.009,0.01-0.018,0.021-0.025,0.03
			c-0.576,0.711-1.144,1.424-1.685,2.151c-0.008,0.011-0.016,0.02-0.023,0.03c-0.009,0.011-0.017,0.021-0.024,0.031
			c-0.548,0.705-1.066,1.428-1.564,2.124l-0.093,0.13c-0.504,0.71-0.998,1.423-1.461,2.115l-0.114,0.171
			c-0.471,0.706-0.931,1.417-1.358,2.102l-0.155,0.25c-0.432,0.693-0.853,1.392-1.26,2.089l-0.172,0.3
			c-0.397,0.684-0.783,1.372-1.167,2.083l-0.194,0.367c-0.354,0.664-0.702,1.332-1.042,2.015l-0.228,0.468
			c-0.316,0.646-0.628,1.293-0.938,1.969l-0.25,0.563c-0.281,0.628-0.559,1.257-0.828,1.907l-0.273,0.678
			c-0.244,0.602-0.485,1.202-0.712,1.807c-0.076,0.203-0.149,0.408-0.222,0.612l-0.142,0.394c-0.184,0.508-0.367,1.017-0.542,1.536
			c-0.081,0.242-0.157,0.485-0.233,0.729l-0.135,0.424c-0.152,0.474-0.304,0.948-0.443,1.421c-0.085,0.287-0.164,0.577-0.243,0.866
			l-0.182,0.655c-0.096,0.339-0.193,0.678-0.295,1.084c-0.009,0.034-0.018,0.076-0.029,0.118c-0.079,0.326-0.157,0.65-0.232,0.977
			l-0.242,1.03c-0.04,0.166-0.079,0.331-0.115,0.496c-0.002,0.009-0.003,0.016-0.004,0.023c-0.003,0.012-0.006,0.023-0.008,0.034
			c-0.189,0.882-0.363,1.766-0.519,2.651c-2.363,13.43-0.178,24.516,6.496,32.95C25.617,180.688,34.566,185.927,47.274,189.501z"/>
		<path style="fill:#9A9A9A;" d="M46.421,188.647c15.02,5.199,34.924,7.021,57.945,9.129c16.999,1.556,34.577,3.164,52.44,6.307
			c17.578,3.093,34.212,7.399,50.298,11.564c17.175,4.445,33.404,8.648,47.062,10.175c5.898,0.963,12.158,1.706,18.342,1.706
			c15.198,0,29.789-4.564,37.758-21.264c0.038-0.08,0.077-0.16,0.11-0.234c0.018-0.039,0.035-0.078,0.053-0.117
			c0.266-0.584,0.525-1.185,0.786-1.836c0.015-0.035,0.028-0.071,0.042-0.107c0.314-0.805,0.623-1.631,0.892-2.421
			c0.012-0.032,0.038-0.112,0.05-0.145c0.276-0.822,0.538-1.677,0.77-2.499l0.091-0.318c0.22-0.796,0.425-1.616,0.62-2.462
			l0.099-0.421c0.225-1.002,0.415-1.955,0.587-2.928c0.135-0.767,0.253-1.533,0.367-2.345l0.05-0.335
			c0.033-0.237,0.061-0.478,0.089-0.717l0.142-1.206c0.03-0.26,0.062-0.519,0.087-0.783c0.029-0.294,0.052-0.59,0.075-0.886
			l0.044-0.537c0.035-0.422,0.07-0.845,0.097-1.273c0.02-0.326,0.033-0.652,0.046-0.979l0.024-0.553
			c0.018-0.392,0.034-0.783,0.043-1.153c0.009-0.332,0.012-0.663,0.014-0.995l0.004-0.56c0.004-0.383,0.005-0.767,0.002-1.173
			c-0.005-0.395-0.017-0.791-0.028-1.188l-0.011-0.361c-0.011-0.388-0.022-0.775-0.04-1.158c-0.021-0.427-0.048-0.854-0.075-1.283
			l-0.016-0.246c-0.025-0.389-0.051-0.777-0.082-1.16c-0.039-0.484-0.086-0.968-0.136-1.458c-0.041-0.421-0.084-0.841-0.13-1.233
			c-0.059-0.5-0.122-1-0.189-1.511c-0.055-0.401-0.108-0.802-0.167-1.193c-0.076-0.511-0.159-1.021-0.249-1.559
			c-0.063-0.371-0.127-0.741-0.195-1.124c-0.097-0.525-0.199-1.052-0.303-1.566c-0.075-0.377-0.154-0.754-0.227-1.086
			c-0.117-0.544-0.239-1.089-0.369-1.643c-0.081-0.343-0.163-0.683-0.248-1.025c-0.138-0.556-0.281-1.112-0.436-1.696l-0.26-0.942
			c-0.161-0.573-0.325-1.146-0.503-1.733l-0.272-0.879c-0.185-0.595-0.375-1.189-0.585-1.818l-0.264-0.77
			c-0.214-0.626-0.434-1.25-0.653-1.85l-0.269-0.717c-0.245-0.651-0.493-1.303-0.755-1.96l-0.229-0.56
			c-0.281-0.693-0.565-1.384-0.859-2.062l-0.174-0.395c-0.326-0.746-0.658-1.49-0.987-2.199l-0.086-0.184
			c-5.041-10.812-12.091-21.264-20.96-31.073c-3.243-4.07-6.681-7.524-10.226-10.275c-1.23-1.124-2.513-2.258-3.91-3.455
			c0,0,0,0-0.001,0c-0.028-0.024-0.059-0.05-0.088-0.075c-10.09-8.572-21.325-16.144-33.554-22.464l0.155-5.957
			c0-0.008,0.002-0.105,0.002-0.113l0.063-3.52c0.001-0.016,0.002-0.106,0.002-0.121l0.007-0.481
			c0.128-9.419-0.052-16.177-0.55-20.657c-0.089-0.792-0.21-1.592-0.379-2.494c-0.039-0.207-0.079-0.413-0.126-0.64
			c-0.189-0.915-0.381-1.684-0.589-2.419c-0.014-0.05-0.029-0.101-0.044-0.149c-0.214-0.696-0.443-1.416-0.741-2.216
			c-0.068-0.185-0.14-0.368-0.199-0.519c-0.317-0.809-0.625-1.533-0.976-2.259c-0.034-0.07-0.07-0.141-0.106-0.212
			c-0.3-0.594-0.618-1.205-0.985-1.846c-0.103-0.179-0.206-0.357-0.307-0.525c-0.427-0.715-0.839-1.352-1.212-1.893
			c-0.079-0.113-0.16-0.225-0.243-0.341c-0.385-0.534-0.781-1.062-1.239-1.633c-0.115-0.144-0.232-0.289-0.337-0.415
			c-0.512-0.614-0.987-1.158-1.436-1.637c-0.105-0.113-0.214-0.225-0.279-0.288c-0.434-0.455-0.88-0.896-1.385-1.373
			c-0.15-0.143-0.301-0.284-0.445-0.416c-0.513-0.468-1.034-0.927-1.605-1.396c-0.112-0.094-0.229-0.184-0.366-0.291
			c-0.44-0.349-0.885-0.695-1.362-1.048l-0.573-0.42c-0.538-0.383-1.083-0.758-1.688-1.15l-0.532-0.334
			c-0.411-0.257-0.827-0.511-1.25-0.76c-0.234-0.136-0.468-0.273-0.723-0.417c-0.543-0.307-1.092-0.606-1.655-0.897
			c-0.19-0.099-0.383-0.192-0.573-0.287l-0.176-0.087c-0.366-0.182-0.734-0.36-1.172-0.566c-0.268-0.125-0.536-0.251-0.801-0.368
			c-0.517-0.232-1.039-0.459-1.58-0.683c-0.325-0.134-0.652-0.263-0.957-0.382c-0.324-0.128-0.649-0.253-1.024-0.394
			c-0.314-0.117-0.629-0.233-0.955-0.35c-0.386-0.136-0.774-0.268-1.168-0.398c-0.486-0.162-0.975-0.316-1.459-0.465
			c-0.277-0.086-0.555-0.17-0.788-0.238c-0.382-0.111-0.764-0.223-1.136-0.324l-0.707-0.188c-0.661-0.175-1.326-0.34-1.984-0.492
			l-0.754-0.172c-0.37-0.082-0.738-0.162-1.107-0.238c-0.049-0.011-0.097-0.021-0.146-0.03c-7.93-1.553-16.073-1.917-22.979-0.872
			c-19.592,2.97-27.83,19.917-29.415,23.637l-10.788,20.585c-21.162,1.308-41.798,6.175-59.998,14.183
			c-19.577,8.611-35.924,20.699-47.415,34.844c-0.008,0.01-0.017,0.021-0.024,0.03c-0.577,0.711-1.144,1.423-1.684,2.151
			c-0.008,0.01-0.016,0.02-0.022,0.029c-0.009,0.012-0.017,0.022-0.024,0.032c-0.548,0.704-1.066,1.428-1.565,2.124l-0.093,0.13
			c-0.504,0.71-0.998,1.423-1.461,2.115l-0.114,0.171c-0.471,0.706-0.932,1.417-1.358,2.102l-0.155,0.25
			c-0.432,0.693-0.854,1.392-1.26,2.089l-0.172,0.3c-0.396,0.684-0.783,1.372-1.167,2.083l-0.194,0.367
			c-0.353,0.664-0.702,1.332-1.042,2.015l-0.227,0.468c-0.316,0.646-0.628,1.293-0.938,1.969l-0.25,0.563
			c-0.281,0.627-0.559,1.257-0.828,1.906l-0.272,0.679c-0.244,0.602-0.485,1.202-0.712,1.807c-0.076,0.203-0.149,0.408-0.223,0.612
			l-0.141,0.393c-0.184,0.509-0.367,1.018-0.542,1.537c-0.081,0.242-0.157,0.484-0.233,0.729l-0.135,0.424
			c-0.152,0.474-0.304,0.947-0.443,1.421c-0.085,0.287-0.164,0.577-0.243,0.866l-0.182,0.655c-0.096,0.339-0.194,0.677-0.295,1.083
			c-0.009,0.035-0.019,0.076-0.029,0.119c-0.079,0.325-0.157,0.65-0.233,0.977l-0.242,1.031c-0.04,0.166-0.079,0.331-0.115,0.496
			c-0.002,0.009-0.003,0.016-0.005,0.024c-0.002,0.012-0.005,0.023-0.007,0.034c-0.189,0.882-0.363,1.766-0.519,2.651
			c-2.363,13.43-0.178,24.516,6.496,32.95C24.765,179.835,33.714,185.074,46.421,188.647z"/>
		<path style="fill:#8B8B8B;" d="M45.567,187.794c15.019,5.199,34.924,7.021,57.945,9.129c16.999,1.556,34.577,3.164,52.44,6.307
			c17.578,3.093,34.212,7.4,50.298,11.564c17.175,4.445,33.404,8.648,47.062,10.175c5.897,0.963,12.158,1.707,18.342,1.707
			c15.198,0,29.789-4.564,37.758-21.265c0.039-0.08,0.077-0.16,0.11-0.234c0.018-0.039,0.035-0.078,0.053-0.117
			c0.266-0.582,0.526-1.184,0.786-1.836c0.016-0.034,0.028-0.071,0.042-0.107c0.315-0.805,0.623-1.629,0.892-2.421
			c0.012-0.032,0.038-0.112,0.05-0.145c0.276-0.823,0.538-1.678,0.77-2.5l0.091-0.318c0.22-0.796,0.425-1.616,0.62-2.462
			l0.099-0.421c0.225-1.001,0.415-1.955,0.587-2.928c0.135-0.767,0.253-1.533,0.367-2.345l0.05-0.335
			c0.033-0.237,0.06-0.478,0.089-0.717l0.142-1.206c0.03-0.26,0.062-0.518,0.087-0.783c0.029-0.294,0.052-0.59,0.075-0.886
			l0.044-0.537c0.035-0.422,0.07-0.845,0.097-1.273c0.02-0.326,0.033-0.652,0.046-0.979l0.024-0.553
			c0.018-0.392,0.034-0.783,0.043-1.153c0.009-0.332,0.012-0.663,0.014-0.995l0.004-0.56c0.004-0.383,0.005-0.767,0.002-1.173
			c-0.005-0.395-0.017-0.791-0.028-1.188l-0.011-0.361c-0.011-0.388-0.022-0.775-0.04-1.158c-0.02-0.427-0.048-0.854-0.075-1.283
			l-0.016-0.246c-0.025-0.389-0.051-0.777-0.082-1.16c-0.039-0.484-0.086-0.968-0.136-1.458c-0.041-0.421-0.084-0.841-0.13-1.233
			c-0.057-0.5-0.122-1-0.19-1.511c-0.055-0.401-0.107-0.802-0.167-1.193c-0.076-0.511-0.159-1.021-0.249-1.559
			c-0.063-0.371-0.127-0.741-0.195-1.123c-0.097-0.526-0.199-1.053-0.303-1.567c-0.075-0.377-0.154-0.752-0.227-1.086
			c-0.117-0.543-0.239-1.089-0.369-1.643c-0.081-0.343-0.163-0.683-0.248-1.025c-0.138-0.556-0.281-1.112-0.437-1.696l-0.26-0.942
			c-0.161-0.573-0.325-1.146-0.503-1.733l-0.271-0.879c-0.186-0.595-0.375-1.188-0.585-1.818l-0.264-0.77
			c-0.214-0.626-0.434-1.25-0.653-1.85l-0.269-0.717c-0.245-0.651-0.493-1.303-0.755-1.96l-0.229-0.56
			c-0.281-0.693-0.565-1.384-0.859-2.062l-0.174-0.395c-0.326-0.746-0.658-1.49-0.987-2.199l-0.086-0.184
			c-5.041-10.812-12.091-21.264-20.96-31.073c-3.243-4.07-6.681-7.524-10.225-10.275c-1.231-1.124-2.513-2.258-3.91-3.455H270.7
			c-0.028-0.024-0.059-0.05-0.088-0.075c-10.09-8.571-21.325-16.144-33.554-22.464l0.155-5.957c0-0.008,0.002-0.105,0.002-0.113
			l0.063-3.52c0.001-0.016,0.002-0.106,0.002-0.121l0.007-0.481c0.128-9.419-0.052-16.177-0.55-20.657
			c-0.089-0.792-0.21-1.592-0.379-2.494c-0.039-0.207-0.079-0.413-0.126-0.64c-0.189-0.915-0.38-1.684-0.589-2.419
			c-0.014-0.05-0.028-0.1-0.044-0.15c-0.213-0.696-0.443-1.416-0.741-2.216c-0.068-0.186-0.139-0.367-0.199-0.52
			c-0.316-0.809-0.625-1.533-0.976-2.259c-0.033-0.07-0.07-0.14-0.106-0.212c-0.3-0.593-0.618-1.205-0.985-1.846
			c-0.103-0.179-0.206-0.357-0.307-0.525c-0.427-0.715-0.838-1.352-1.212-1.893c-0.078-0.113-0.16-0.225-0.243-0.341
			c-0.385-0.534-0.781-1.062-1.239-1.632c-0.115-0.145-0.231-0.289-0.337-0.416c-0.512-0.613-0.987-1.158-1.435-1.637
			c-0.106-0.113-0.214-0.225-0.279-0.288c-0.434-0.455-0.88-0.896-1.385-1.373c-0.15-0.143-0.301-0.284-0.445-0.416
			c-0.513-0.468-1.034-0.927-1.605-1.396c-0.112-0.094-0.229-0.183-0.366-0.291c-0.44-0.348-0.885-0.695-1.362-1.048l-0.573-0.419
			c-0.538-0.384-1.083-0.759-1.688-1.151l-0.532-0.334c-0.411-0.257-0.827-0.511-1.25-0.76c-0.234-0.136-0.468-0.273-0.723-0.417
			c-0.543-0.307-1.092-0.606-1.655-0.897c-0.19-0.099-0.383-0.192-0.573-0.287l-0.176-0.087c-0.366-0.182-0.734-0.36-1.172-0.566
			c-0.268-0.125-0.536-0.25-0.801-0.368c-0.517-0.232-1.039-0.459-1.58-0.683c-0.325-0.134-0.652-0.263-0.957-0.382
			c-0.324-0.128-0.649-0.253-1.024-0.393c-0.314-0.117-0.629-0.233-0.955-0.35c-0.386-0.136-0.773-0.268-1.168-0.398
			c-0.486-0.162-0.975-0.316-1.459-0.465c-0.277-0.086-0.555-0.169-0.788-0.238c-0.382-0.111-0.764-0.223-1.136-0.324l-0.707-0.188
			c-0.661-0.175-1.326-0.34-1.984-0.492l-0.754-0.172c-0.37-0.082-0.738-0.162-1.107-0.238c-0.049-0.011-0.097-0.02-0.146-0.03
			c-7.929-1.552-16.073-1.917-22.979-0.872c-19.592,2.97-27.83,19.917-29.415,23.637l-10.788,20.585
			c-21.162,1.308-41.798,6.175-59.998,14.183c-19.577,8.611-35.923,20.7-47.415,34.844c-0.008,0.01-0.017,0.021-0.024,0.03
			c-0.576,0.711-1.143,1.424-1.685,2.151c-0.008,0.01-0.016,0.02-0.022,0.029c-0.009,0.012-0.017,0.023-0.024,0.032
			c-0.548,0.705-1.066,1.428-1.564,2.124l-0.093,0.13c-0.504,0.71-0.998,1.423-1.461,2.115l-0.114,0.171
			c-0.471,0.706-0.932,1.417-1.358,2.102l-0.155,0.25c-0.432,0.693-0.854,1.392-1.26,2.089l-0.172,0.3
			c-0.396,0.684-0.783,1.372-1.167,2.083l-0.194,0.367c-0.354,0.664-0.702,1.332-1.042,2.015l-0.228,0.468
			c-0.316,0.646-0.628,1.293-0.938,1.969l-0.25,0.563c-0.281,0.627-0.559,1.257-0.828,1.906l-0.272,0.679
			c-0.244,0.603-0.485,1.202-0.712,1.807c-0.076,0.203-0.149,0.408-0.223,0.612l-0.141,0.393c-0.184,0.509-0.367,1.018-0.542,1.537
			c-0.081,0.242-0.157,0.484-0.233,0.729l-0.135,0.424c-0.152,0.474-0.304,0.947-0.443,1.421c-0.085,0.287-0.164,0.577-0.243,0.866
			l-0.182,0.655c-0.096,0.339-0.193,0.678-0.295,1.083c-0.009,0.035-0.017,0.076-0.029,0.119c-0.079,0.326-0.157,0.65-0.232,0.977
			l-0.242,1.031c-0.04,0.166-0.079,0.331-0.115,0.496c-0.002,0.009-0.003,0.016-0.005,0.023c-0.002,0.012-0.005,0.023-0.007,0.034
			c-0.189,0.882-0.363,1.766-0.519,2.651c-2.363,13.43-0.178,24.516,6.496,32.95C23.911,178.981,32.86,184.221,45.567,187.794z"/>
		<path style="fill:#7D7D7D;" d="M44.715,186.941c15.02,5.199,34.924,7.021,57.945,9.128c16.999,1.557,34.577,3.165,52.44,6.307
			c17.578,3.094,34.212,7.4,50.298,11.564c17.175,4.447,33.404,8.648,47.061,10.176c5.897,0.963,12.158,1.706,18.342,1.706
			c15.198,0,29.789-4.564,37.758-21.264c0.038-0.08,0.077-0.161,0.11-0.233c0.018-0.039,0.035-0.079,0.053-0.118
			c0.266-0.583,0.525-1.185,0.787-1.836c0.014-0.035,0.027-0.071,0.041-0.107c0.315-0.805,0.623-1.63,0.892-2.421
			c0.012-0.032,0.038-0.112,0.05-0.146c0.276-0.822,0.539-1.677,0.77-2.499l0.091-0.318c0.22-0.796,0.425-1.616,0.62-2.463l0.1-0.42
			c0.223-1.002,0.414-1.955,0.586-2.928c0.135-0.767,0.253-1.533,0.367-2.345l0.05-0.335c0.032-0.237,0.061-0.478,0.089-0.717
			l0.142-1.206c0.03-0.26,0.061-0.519,0.087-0.783c0.029-0.294,0.053-0.59,0.075-0.886l0.044-0.537
			c0.035-0.422,0.07-0.846,0.097-1.273c0.019-0.326,0.033-0.652,0.046-0.98l0.024-0.553c0.018-0.392,0.034-0.783,0.044-1.153
			c0.008-0.332,0.011-0.663,0.013-0.995l0.003-0.559c0.004-0.383,0.006-0.767,0.002-1.173c-0.004-0.396-0.016-0.791-0.027-1.188
			l-0.012-0.361c-0.01-0.388-0.022-0.776-0.039-1.158c-0.02-0.427-0.048-0.855-0.075-1.283l-0.016-0.246
			c-0.025-0.39-0.051-0.778-0.082-1.16c-0.039-0.484-0.086-0.968-0.136-1.458c-0.041-0.421-0.084-0.841-0.13-1.233
			c-0.058-0.5-0.122-1-0.19-1.511c-0.053-0.401-0.107-0.802-0.166-1.193c-0.076-0.511-0.159-1.021-0.249-1.559
			c-0.064-0.371-0.127-0.741-0.196-1.124c-0.096-0.525-0.198-1.052-0.302-1.566c-0.075-0.377-0.154-0.753-0.227-1.086
			c-0.118-0.544-0.239-1.089-0.369-1.643c-0.081-0.343-0.163-0.683-0.248-1.025c-0.138-0.556-0.28-1.112-0.436-1.696l-0.26-0.942
			c-0.162-0.573-0.326-1.146-0.503-1.733l-0.27-0.879c-0.186-0.595-0.376-1.189-0.586-1.818l-0.264-0.77
			c-0.214-0.626-0.434-1.25-0.654-1.85l-0.268-0.717c-0.245-0.651-0.492-1.303-0.755-1.96l-0.23-0.559
			c-0.281-0.693-0.566-1.384-0.859-2.062l-0.174-0.396c-0.326-0.746-0.658-1.49-0.987-2.199l-0.087-0.184
			c-5.04-10.812-12.09-21.264-20.959-31.073c-3.243-4.07-6.681-7.524-10.226-10.275c-1.23-1.124-2.513-2.258-3.91-3.455
			c0,0,0,0-0.001,0c-0.028-0.024-0.059-0.05-0.088-0.075c-10.09-8.572-21.325-16.144-33.554-22.464l0.155-5.957
			c0-0.007,0.002-0.105,0.002-0.113l0.064-3.52c0.001-0.016,0.002-0.106,0.002-0.122l0.007-0.48
			c0.128-9.419-0.052-16.177-0.551-20.657c-0.088-0.792-0.209-1.592-0.378-2.494c-0.039-0.207-0.079-0.413-0.126-0.64
			c-0.189-0.915-0.381-1.684-0.589-2.419c-0.014-0.05-0.029-0.101-0.044-0.149c-0.214-0.695-0.443-1.416-0.741-2.217
			c-0.069-0.185-0.14-0.367-0.199-0.52c-0.317-0.808-0.625-1.532-0.976-2.258c-0.034-0.07-0.07-0.141-0.106-0.212
			c-0.3-0.593-0.618-1.204-0.985-1.846c-0.103-0.179-0.206-0.357-0.307-0.525c-0.427-0.715-0.839-1.352-1.212-1.893
			c-0.079-0.114-0.16-0.226-0.243-0.341c-0.385-0.533-0.781-1.062-1.239-1.633c-0.115-0.145-0.232-0.289-0.337-0.415
			c-0.512-0.613-0.987-1.159-1.436-1.637c-0.105-0.113-0.214-0.225-0.279-0.288c-0.434-0.455-0.88-0.897-1.385-1.373
			c-0.15-0.143-0.301-0.284-0.445-0.416c-0.513-0.468-1.034-0.927-1.605-1.396c-0.113-0.092-0.23-0.183-0.366-0.29
			c-0.441-0.349-0.885-0.695-1.362-1.048l-0.574-0.42c-0.537-0.383-1.082-0.758-1.688-1.15l-0.532-0.334
			c-0.411-0.257-0.827-0.511-1.251-0.76c-0.233-0.137-0.467-0.273-0.723-0.417c-0.542-0.307-1.091-0.606-1.654-0.898
			c-0.19-0.099-0.383-0.193-0.573-0.287l-0.176-0.087c-0.366-0.182-0.734-0.36-1.172-0.566c-0.268-0.126-0.536-0.251-0.801-0.368
			c-0.517-0.233-1.039-0.459-1.58-0.683c-0.325-0.134-0.652-0.263-0.957-0.382c-0.324-0.128-0.649-0.253-1.024-0.394
			c-0.315-0.117-0.629-0.233-0.955-0.35c-0.386-0.136-0.773-0.268-1.168-0.399c-0.486-0.161-0.975-0.316-1.459-0.465
			c-0.277-0.085-0.555-0.169-0.788-0.237c-0.382-0.111-0.764-0.223-1.136-0.324l-0.707-0.188c-0.661-0.175-1.326-0.34-1.984-0.493
			l-0.754-0.171c-0.37-0.082-0.738-0.163-1.107-0.238c-0.049-0.011-0.097-0.021-0.146-0.03c-7.93-1.553-16.073-1.916-22.979-0.872
			c-19.592,2.97-27.83,19.917-29.415,23.637l-10.788,20.585c-21.162,1.308-41.798,6.175-59.998,14.182
			c-19.577,8.612-35.924,20.7-47.415,34.845c-0.008,0.01-0.017,0.021-0.024,0.03c-0.577,0.711-1.145,1.424-1.685,2.151
			c-0.008,0.011-0.016,0.02-0.022,0.029c-0.009,0.012-0.017,0.022-0.024,0.032c-0.548,0.704-1.066,1.428-1.564,2.124l-0.093,0.13
			c-0.504,0.71-0.998,1.423-1.461,2.115l-0.114,0.171c-0.471,0.706-0.932,1.417-1.358,2.102l-0.155,0.25
			c-0.432,0.693-0.854,1.392-1.26,2.089l-0.172,0.3c-0.396,0.683-0.783,1.372-1.167,2.083l-0.194,0.367
			c-0.354,0.664-0.702,1.332-1.042,2.015l-0.228,0.468c-0.316,0.646-0.628,1.293-0.938,1.969l-0.25,0.563
			c-0.281,0.627-0.559,1.257-0.829,1.907l-0.271,0.678c-0.244,0.602-0.485,1.202-0.713,1.807c-0.075,0.203-0.149,0.408-0.222,0.612
			l-0.141,0.393c-0.184,0.509-0.367,1.018-0.542,1.537c-0.081,0.241-0.157,0.484-0.233,0.729l-0.135,0.423
			c-0.152,0.475-0.304,0.948-0.443,1.422c-0.085,0.287-0.164,0.577-0.243,0.866l-0.182,0.655c-0.096,0.339-0.194,0.677-0.295,1.084
			c-0.009,0.034-0.019,0.075-0.029,0.118c-0.079,0.325-0.157,0.65-0.232,0.977l-0.242,1.031c-0.04,0.166-0.079,0.331-0.115,0.496
			c-0.002,0.009-0.003,0.016-0.005,0.023c-0.002,0.012-0.005,0.023-0.007,0.034c-0.189,0.881-0.363,1.766-0.518,2.651
			c-2.363,13.43-0.178,24.516,6.496,32.95C23.059,178.129,32.008,183.368,44.715,186.941z"/>
		<path style="fill:#6E6E6E;" d="M43.861,186.089c15.019,5.199,34.924,7.021,57.945,9.127c17,1.557,34.577,3.166,52.44,6.307
			c17.578,3.094,34.212,7.4,50.298,11.566c17.175,4.446,33.404,8.648,47.062,10.176c5.897,0.963,12.158,1.705,18.342,1.705
			c15.198,0,29.789-4.563,37.758-21.264c0.039-0.08,0.077-0.159,0.11-0.233c0.018-0.039,0.035-0.078,0.053-0.117
			c0.266-0.584,0.525-1.185,0.787-1.837c0.015-0.035,0.027-0.07,0.041-0.107c0.315-0.805,0.624-1.63,0.893-2.42
			c0.011-0.033,0.037-0.113,0.049-0.146c0.276-0.822,0.539-1.677,0.77-2.499l0.091-0.317c0.22-0.797,0.425-1.616,0.62-2.464
			l0.1-0.42c0.223-1.002,0.414-1.955,0.586-2.928c0.135-0.767,0.253-1.533,0.367-2.344l0.051-0.336
			c0.031-0.237,0.06-0.477,0.088-0.717l0.142-1.205c0.03-0.26,0.062-0.52,0.087-0.783c0.029-0.295,0.053-0.59,0.075-0.887
			l0.044-0.537c0.035-0.422,0.071-0.846,0.097-1.273c0.019-0.326,0.034-0.651,0.046-0.98l0.024-0.553
			c0.018-0.391,0.034-0.782,0.044-1.153c0.008-0.332,0.011-0.662,0.013-0.994l0.003-0.561c0.004-0.382,0.006-0.767,0.002-1.173
			c-0.003-0.396-0.016-0.791-0.027-1.188l-0.012-0.361c-0.009-0.388-0.021-0.776-0.039-1.158c-0.02-0.427-0.048-0.855-0.075-1.282
			l-0.015-0.246c-0.026-0.391-0.052-0.779-0.083-1.16c-0.039-0.485-0.086-0.969-0.136-1.459c-0.041-0.421-0.084-0.84-0.13-1.233
			c-0.058-0.499-0.122-1-0.19-1.511c-0.053-0.4-0.107-0.801-0.166-1.192c-0.076-0.511-0.159-1.023-0.249-1.559
			c-0.063-0.372-0.127-0.742-0.194-1.125c-0.098-0.525-0.199-1.052-0.304-1.566c-0.075-0.376-0.154-0.753-0.227-1.085
			c-0.118-0.544-0.238-1.089-0.369-1.643c-0.081-0.343-0.162-0.683-0.248-1.025c-0.138-0.557-0.28-1.113-0.436-1.697l-0.261-0.942
			c-0.16-0.573-0.326-1.145-0.503-1.733l-0.271-0.879c-0.186-0.595-0.376-1.189-0.586-1.817l-0.264-0.771
			c-0.214-0.626-0.434-1.25-0.654-1.85l-0.267-0.717c-0.245-0.65-0.492-1.302-0.755-1.959l-0.228-0.56
			c-0.282-0.694-0.566-1.385-0.859-2.062l-0.174-0.395c-0.327-0.746-0.659-1.491-0.988-2.2l-0.087-0.184
			c-5.04-10.811-12.09-21.264-20.959-31.072c-3.243-4.071-6.681-7.525-10.226-10.275c-1.23-1.124-2.513-2.259-3.91-3.456h-0.001
			c-0.027-0.024-0.059-0.049-0.087-0.075c-10.091-8.571-21.326-16.145-33.555-22.464l0.155-5.957c0-0.007,0.003-0.105,0.003-0.112
			l0.063-3.521c0.001-0.016,0.002-0.106,0.002-0.122l0.007-0.48c0.128-9.418-0.052-16.177-0.551-20.656
			c-0.087-0.793-0.209-1.593-0.378-2.494c-0.039-0.208-0.079-0.414-0.126-0.641c-0.19-0.914-0.38-1.683-0.589-2.419
			c-0.014-0.05-0.028-0.1-0.044-0.148c-0.213-0.696-0.443-1.417-0.741-2.218c-0.069-0.185-0.139-0.366-0.199-0.52
			c-0.316-0.807-0.624-1.532-0.976-2.258c-0.033-0.07-0.069-0.14-0.106-0.211c-0.3-0.594-0.618-1.205-0.985-1.847
			c-0.103-0.179-0.206-0.357-0.307-0.525c-0.427-0.714-0.838-1.351-1.212-1.892c-0.078-0.113-0.159-0.226-0.242-0.341
			c-0.386-0.533-0.782-1.061-1.24-1.633c-0.115-0.143-0.232-0.288-0.337-0.415c-0.512-0.613-0.987-1.159-1.436-1.636
			c-0.105-0.113-0.214-0.225-0.279-0.289c-0.433-0.455-0.88-0.896-1.384-1.372c-0.151-0.143-0.302-0.285-0.446-0.417
			c-0.513-0.468-1.034-0.926-1.605-1.396c-0.113-0.092-0.23-0.182-0.366-0.29c-0.441-0.348-0.885-0.695-1.362-1.048l-0.574-0.42
			c-0.537-0.383-1.082-0.757-1.688-1.15l-0.532-0.334c-0.411-0.257-0.827-0.51-1.251-0.759c-0.233-0.138-0.467-0.274-0.723-0.417
			c-0.542-0.308-1.091-0.608-1.654-0.899c-0.19-0.099-0.382-0.193-0.573-0.287l-0.176-0.086c-0.366-0.182-0.734-0.361-1.172-0.567
			c-0.268-0.125-0.536-0.251-0.801-0.368c-0.517-0.231-1.039-0.459-1.579-0.683c-0.326-0.134-0.652-0.263-0.958-0.382
			c-0.324-0.128-0.649-0.253-1.024-0.393c-0.314-0.118-0.629-0.234-0.954-0.35c-0.387-0.137-0.774-0.269-1.169-0.399
			c-0.486-0.162-0.975-0.317-1.459-0.466c-0.277-0.085-0.555-0.168-0.788-0.237c-0.382-0.111-0.764-0.223-1.136-0.324l-0.707-0.188
			c-0.661-0.174-1.326-0.34-1.984-0.492l-0.754-0.172c-0.37-0.082-0.738-0.163-1.107-0.237c-0.049-0.012-0.097-0.021-0.146-0.03
			c-7.929-1.553-16.073-1.917-22.979-0.873c-19.592,2.97-27.83,19.918-29.415,23.638L134.578,51.67
			c-21.162,1.307-41.798,6.175-59.998,14.181c-19.577,8.613-35.923,20.701-47.415,34.845c-0.008,0.011-0.017,0.021-0.024,0.03
			c-0.576,0.711-1.144,1.424-1.685,2.151c-0.008,0.011-0.015,0.021-0.023,0.029c-0.008,0.012-0.017,0.023-0.023,0.032
			c-0.549,0.705-1.067,1.429-1.565,2.124l-0.093,0.13c-0.504,0.711-0.998,1.424-1.461,2.115l-0.114,0.171
			c-0.471,0.707-0.932,1.417-1.358,2.102l-0.154,0.25c-0.433,0.693-0.855,1.393-1.261,2.089l-0.172,0.301
			c-0.397,0.683-0.783,1.371-1.167,2.082l-0.194,0.367c-0.354,0.664-0.702,1.332-1.042,2.015l-0.228,0.468
			c-0.316,0.646-0.627,1.293-0.937,1.969l-0.25,0.563c-0.28,0.627-0.559,1.257-0.829,1.907l-0.271,0.678
			c-0.243,0.602-0.485,1.202-0.713,1.807c-0.075,0.203-0.148,0.408-0.222,0.613l-0.14,0.393c-0.185,0.509-0.368,1.018-0.543,1.536
			c-0.081,0.241-0.157,0.484-0.233,0.729l-0.135,0.423c-0.152,0.475-0.304,0.949-0.443,1.422c-0.085,0.288-0.164,0.577-0.243,0.866
			l-0.182,0.656c-0.096,0.338-0.193,0.677-0.295,1.083c-0.009,0.034-0.018,0.076-0.028,0.118c-0.079,0.325-0.158,0.65-0.233,0.977
			l-0.241,1.032c-0.041,0.165-0.08,0.33-0.116,0.495c-0.002,0.009-0.003,0.017-0.005,0.024c-0.002,0.011-0.005,0.022-0.007,0.033
			c-0.189,0.881-0.363,1.767-0.519,2.651c-2.363,13.43-0.178,24.517,6.496,32.951C22.205,177.275,31.154,182.516,43.861,186.089z"/>
		<path style="fill:#606060;" d="M43.009,185.235c15.019,5.199,34.924,7.021,57.945,9.128c16.999,1.556,34.577,3.165,52.441,6.308
			c17.578,3.093,34.211,7.398,50.298,11.564c17.175,4.446,33.404,8.648,47.061,10.176c5.898,0.963,12.158,1.706,18.342,1.706
			c15.198,0,29.941-4.492,37.758-21.264c0.039-0.08,0.076-0.16,0.11-0.234c0.018-0.039,0.035-0.078,0.053-0.117
			c0.265-0.584,0.522-1.186,0.786-1.836c0.015-0.035,0.028-0.071,0.042-0.107c0.32-0.803,0.624-1.63,0.892-2.421
			c0.012-0.032,0.038-0.112,0.049-0.146c0.277-0.822,0.539-1.677,0.771-2.499l0.091-0.318c0.22-0.796,0.425-1.616,0.62-2.463
			l0.099-0.42c0.224-1.002,0.415-1.956,0.587-2.928c0.134-0.767,0.253-1.534,0.367-2.345l0.05-0.335
			c0.033-0.237,0.06-0.478,0.088-0.717l0.142-1.206c0.03-0.26,0.061-0.518,0.087-0.783c0.029-0.294,0.052-0.59,0.075-0.886
			l0.044-0.537c0.035-0.422,0.07-0.846,0.097-1.274c0.02-0.325,0.033-0.651,0.046-0.979l0.024-0.553
			c0.018-0.392,0.035-0.783,0.043-1.153c0.01-0.332,0.012-0.663,0.014-0.995l0.004-0.56c0.003-0.383,0.005-0.767,0.002-1.173
			c-0.005-0.395-0.017-0.791-0.028-1.188l-0.011-0.361c-0.011-0.388-0.022-0.775-0.04-1.158c-0.021-0.427-0.048-0.855-0.075-1.283
			l-0.016-0.246c-0.025-0.389-0.051-0.778-0.082-1.16c-0.039-0.484-0.086-0.968-0.136-1.458c-0.042-0.421-0.083-0.841-0.13-1.233
			c-0.057-0.5-0.122-1-0.189-1.512c-0.055-0.4-0.108-0.801-0.168-1.192c-0.075-0.511-0.158-1.021-0.248-1.559
			c-0.063-0.371-0.127-0.741-0.195-1.124c-0.097-0.525-0.199-1.052-0.303-1.566c-0.075-0.377-0.153-0.754-0.227-1.086
			c-0.116-0.544-0.239-1.089-0.369-1.643c-0.081-0.343-0.163-0.683-0.248-1.025c-0.138-0.556-0.281-1.112-0.436-1.696l-0.26-0.942
			c-0.161-0.573-0.326-1.146-0.503-1.733l-0.272-0.879c-0.185-0.595-0.375-1.188-0.585-1.818l-0.264-0.77
			c-0.214-0.626-0.434-1.25-0.653-1.85l-0.269-0.717c-0.245-0.651-0.493-1.303-0.755-1.96l-0.229-0.56
			c-0.281-0.693-0.565-1.384-0.859-2.062l-0.174-0.395c-0.326-0.746-0.658-1.491-0.987-2.199l-0.086-0.184
			c-5.041-10.811-12.091-21.264-20.96-31.073c-3.243-4.07-6.681-7.524-10.226-10.275c-1.23-1.124-2.513-2.258-3.91-3.455
			c0,0,0,0-0.001,0c-0.028-0.024-0.059-0.05-0.088-0.075c-10.062-8.605-21.325-16.145-33.554-22.464l0.155-5.957
			c0-0.008,0.002-0.105,0.002-0.113l0.063-3.52c0.001-0.016,0.002-0.106,0.002-0.122l0.007-0.48
			c0.128-9.419-0.052-16.177-0.551-20.657c-0.088-0.792-0.209-1.592-0.378-2.494c-0.039-0.207-0.079-0.413-0.126-0.641
			c-0.189-0.914-0.377-1.684-0.589-2.418c-0.014-0.05-0.028-0.101-0.044-0.149c-0.204-0.698-0.443-1.416-0.741-2.217
			c-0.069-0.185-0.139-0.367-0.199-0.52c-0.315-0.809-0.627-1.531-0.976-2.258c-0.034-0.07-0.069-0.141-0.106-0.212
			c-0.293-0.597-0.618-1.205-0.985-1.846c-0.102-0.179-0.206-0.357-0.307-0.525c-0.427-0.715-0.837-1.354-1.212-1.893
			c-0.078-0.114-0.159-0.226-0.243-0.341c-0.382-0.536-0.781-1.062-1.239-1.633c-0.115-0.144-0.231-0.289-0.337-0.415
			c-0.51-0.615-0.987-1.158-1.436-1.637c-0.105-0.113-0.214-0.225-0.279-0.288c-0.434-0.455-0.88-0.896-1.385-1.373
			c-0.15-0.144-0.301-0.284-0.445-0.416c-0.513-0.468-1.034-0.927-1.606-1.397c-0.113-0.093-0.228-0.184-0.366-0.29
			c-0.438-0.353-0.885-0.695-1.363-1.048l-0.573-0.42c-0.537-0.383-1.082-0.758-1.688-1.15l-0.532-0.334
			c-0.411-0.257-0.827-0.511-1.251-0.76c-0.233-0.136-0.467-0.273-0.723-0.417c-0.542-0.307-1.091-0.606-1.654-0.898
			c-0.19-0.099-0.383-0.193-0.573-0.288l-0.176-0.086c-0.366-0.182-0.734-0.36-1.172-0.566c-0.268-0.126-0.536-0.251-0.801-0.369
			c-0.517-0.231-1.039-0.458-1.58-0.682c-0.325-0.135-0.652-0.264-0.957-0.382c-0.324-0.128-0.649-0.253-1.024-0.394
			c-0.314-0.117-0.629-0.233-0.955-0.35c-0.386-0.136-0.773-0.268-1.168-0.399c-0.486-0.161-0.975-0.316-1.459-0.464
			c-0.277-0.086-0.555-0.17-0.788-0.238c-0.382-0.112-0.764-0.223-1.136-0.324l-0.707-0.188c-0.661-0.175-1.326-0.34-1.984-0.493
			l-0.754-0.171c-0.37-0.082-0.739-0.163-1.107-0.238c-0.049-0.011-0.097-0.021-0.146-0.03c-7.919-1.607-16.073-1.917-22.979-0.872
			c-19.592,2.97-27.83,19.917-29.415,23.637l-10.788,20.585c-21.162,1.308-41.798,6.175-59.998,14.183
			C54.15,73.61,37.756,85.659,26.313,99.843c-0.008,0.01-0.017,0.02-0.024,0.03c-0.574,0.712-1.136,1.43-1.685,2.151
			c-0.008,0.01-0.016,0.02-0.022,0.029c-0.009,0.012-0.017,0.022-0.024,0.032c-0.539,0.711-1.066,1.428-1.565,2.124l-0.093,0.13
			c-0.505,0.71-0.998,1.423-1.461,2.115l-0.114,0.171c-0.471,0.706-0.932,1.417-1.359,2.102l-0.154,0.25
			c-0.432,0.693-0.854,1.392-1.26,2.089l-0.172,0.3c-0.396,0.684-0.783,1.372-1.167,2.083l-0.194,0.366
			c-0.354,0.665-0.702,1.333-1.043,2.016l-0.226,0.468c-0.316,0.646-0.628,1.293-0.938,1.969l-0.25,0.563
			c-0.281,0.627-0.559,1.256-0.829,1.906l-0.271,0.679c-0.244,0.601-0.485,1.202-0.713,1.806c-0.075,0.204-0.149,0.408-0.222,0.613
			l-0.141,0.393c-0.184,0.509-0.367,1.018-0.542,1.537c-0.081,0.242-0.157,0.484-0.233,0.729l-0.135,0.423
			c-0.152,0.475-0.305,0.948-0.443,1.422c-0.085,0.287-0.164,0.577-0.243,0.866l-0.182,0.655c-0.096,0.339-0.191,0.678-0.295,1.083
			c-0.009,0.035-0.019,0.076-0.029,0.119c-0.081,0.324-0.157,0.65-0.233,0.977l-0.242,1.031c-0.04,0.166-0.079,0.331-0.115,0.496
			c-0.002,0.009-0.003,0.016-0.005,0.023c-0.002,0.012-0.005,0.023-0.007,0.034c-0.189,0.882-0.363,1.766-0.519,2.651
			c-2.363,13.43-0.178,24.516,6.496,32.95C21.353,176.423,30.302,181.662,43.009,185.235z"/>
	</g>
	<path style="fill:#FFFFFF;" d="M43.009,185.235c15.019,5.199,34.924,7.021,57.945,9.128c16.999,1.556,34.577,3.165,52.441,6.308
		c17.578,3.093,34.211,7.398,50.298,11.564c17.175,4.446,33.404,8.648,47.061,10.176c5.898,0.963,12.158,1.706,18.342,1.706
		c15.198,0,29.941-4.492,37.758-21.264c0.039-0.08,0.076-0.16,0.11-0.234c0.018-0.039,0.035-0.078,0.053-0.117
		c0.265-0.584,0.522-1.186,0.786-1.836c0.015-0.035,0.028-0.071,0.042-0.107c0.32-0.803,0.624-1.63,0.892-2.421
		c0.012-0.032,0.038-0.112,0.049-0.146c0.277-0.822,0.539-1.677,0.771-2.499l0.091-0.318c0.22-0.796,0.425-1.616,0.62-2.463
		l0.099-0.42c0.224-1.002,0.415-1.956,0.587-2.928c0.134-0.767,0.253-1.534,0.367-2.345l0.05-0.335
		c0.033-0.237,0.06-0.478,0.088-0.717l0.142-1.206c0.03-0.26,0.061-0.518,0.087-0.783c0.029-0.294,0.052-0.59,0.075-0.886
		l0.044-0.537c0.035-0.422,0.07-0.846,0.097-1.274c0.02-0.325,0.033-0.651,0.046-0.979l0.024-0.553
		c0.018-0.392,0.035-0.783,0.043-1.153c0.01-0.332,0.012-0.663,0.014-0.995l0.004-0.56c0.003-0.383,0.005-0.767,0.002-1.173
		c-0.005-0.395-0.017-0.791-0.028-1.188l-0.011-0.361c-0.011-0.388-0.022-0.775-0.04-1.158c-0.021-0.427-0.048-0.855-0.075-1.283
		l-0.016-0.246c-0.025-0.389-0.051-0.778-0.082-1.16c-0.039-0.484-0.086-0.968-0.136-1.458c-0.042-0.421-0.083-0.841-0.13-1.233
		c-0.057-0.5-0.122-1-0.189-1.512c-0.055-0.4-0.108-0.801-0.168-1.192c-0.075-0.511-0.158-1.021-0.248-1.559
		c-0.063-0.371-0.127-0.741-0.195-1.124c-0.097-0.525-0.199-1.052-0.303-1.566c-0.075-0.377-0.153-0.754-0.227-1.086
		c-0.116-0.544-0.239-1.089-0.369-1.643c-0.081-0.343-0.163-0.683-0.248-1.025c-0.138-0.556-0.281-1.112-0.436-1.696l-0.26-0.942
		c-0.161-0.573-0.326-1.146-0.503-1.733l-0.272-0.879c-0.185-0.595-0.375-1.188-0.585-1.818l-0.264-0.77
		c-0.214-0.626-0.434-1.25-0.653-1.85l-0.269-0.717c-0.245-0.651-0.493-1.303-0.755-1.96l-0.229-0.56
		c-0.281-0.693-0.565-1.384-0.859-2.062l-0.174-0.395c-0.326-0.746-0.658-1.491-0.987-2.199l-0.086-0.184
		c-5.041-10.811-12.091-21.264-20.96-31.073c-3.243-4.07-6.681-7.524-10.226-10.275c-1.23-1.124-2.513-2.258-3.91-3.455
		c0,0,0,0-0.001,0c-0.028-0.024-0.059-0.05-0.088-0.075c-10.062-8.605-21.325-16.145-33.554-22.464l0.155-5.957
		c0-0.008,0.002-0.105,0.002-0.113l0.063-3.52c0.001-0.016,0.002-0.106,0.002-0.122l0.007-0.48
		c0.128-9.419-0.052-16.177-0.551-20.657c-0.088-0.792-0.209-1.592-0.378-2.494c-0.039-0.207-0.079-0.413-0.126-0.641
		c-0.189-0.914-0.377-1.684-0.589-2.418c-0.014-0.05-0.028-0.101-0.044-0.149c-0.204-0.698-0.443-1.416-0.741-2.217
		c-0.069-0.185-0.139-0.367-0.199-0.52c-0.315-0.809-0.627-1.531-0.976-2.258c-0.034-0.07-0.069-0.141-0.106-0.212
		c-0.293-0.597-0.618-1.205-0.985-1.846c-0.102-0.179-0.206-0.357-0.307-0.525c-0.427-0.715-0.837-1.354-1.212-1.893
		c-0.078-0.114-0.159-0.226-0.243-0.341c-0.382-0.536-0.781-1.062-1.239-1.633c-0.115-0.144-0.231-0.289-0.337-0.415
		c-0.51-0.615-0.987-1.158-1.436-1.637c-0.105-0.113-0.214-0.225-0.279-0.288c-0.434-0.455-0.88-0.896-1.385-1.373
		c-0.15-0.144-0.301-0.284-0.445-0.416c-0.513-0.468-1.034-0.927-1.606-1.397c-0.113-0.093-0.228-0.184-0.366-0.29
		c-0.438-0.353-0.885-0.695-1.363-1.048l-0.573-0.42c-0.537-0.383-1.082-0.758-1.688-1.15l-0.532-0.334
		c-0.411-0.257-0.827-0.511-1.251-0.76c-0.233-0.136-0.467-0.273-0.723-0.417c-0.542-0.307-1.091-0.606-1.654-0.898
		c-0.19-0.099-0.383-0.193-0.573-0.288l-0.176-0.086c-0.366-0.182-0.734-0.36-1.172-0.566c-0.268-0.126-0.536-0.251-0.801-0.369
		c-0.517-0.231-1.039-0.458-1.58-0.682c-0.325-0.135-0.652-0.264-0.957-0.382c-0.324-0.128-0.649-0.253-1.024-0.394
		c-0.314-0.117-0.629-0.233-0.955-0.35c-0.386-0.136-0.773-0.268-1.168-0.399c-0.486-0.161-0.975-0.316-1.459-0.464
		c-0.277-0.086-0.555-0.17-0.788-0.238c-0.382-0.112-0.764-0.223-1.136-0.324l-0.707-0.188c-0.661-0.175-1.326-0.34-1.984-0.493
		l-0.754-0.171c-0.37-0.082-0.739-0.163-1.107-0.238c-0.049-0.011-0.097-0.021-0.146-0.03c-7.919-1.607-16.073-1.917-22.979-0.872
		c-19.592,2.97-27.83,19.917-29.415,23.637l-10.788,20.585c-21.162,1.308-41.798,6.175-59.998,14.183
		C54.15,73.61,37.756,85.659,26.313,99.843c-0.008,0.01-0.017,0.02-0.024,0.03c-0.574,0.712-1.136,1.43-1.685,2.151
		c-0.008,0.01-0.016,0.02-0.022,0.029c-0.009,0.012-0.017,0.022-0.024,0.032c-0.539,0.711-1.066,1.428-1.565,2.124l-0.093,0.13
		c-0.505,0.71-0.998,1.423-1.461,2.115l-0.114,0.171c-0.471,0.706-0.932,1.417-1.359,2.102l-0.154,0.25
		c-0.432,0.693-0.854,1.392-1.26,2.089l-0.172,0.3c-0.396,0.684-0.783,1.372-1.167,2.083l-0.194,0.366
		c-0.354,0.665-0.702,1.333-1.043,2.016l-0.226,0.468c-0.316,0.646-0.628,1.293-0.938,1.969l-0.25,0.563
		c-0.281,0.627-0.559,1.256-0.829,1.906l-0.271,0.679c-0.244,0.601-0.485,1.202-0.713,1.806c-0.075,0.204-0.149,0.408-0.222,0.613
		l-0.141,0.393c-0.184,0.509-0.367,1.018-0.542,1.537c-0.081,0.242-0.157,0.484-0.233,0.729l-0.135,0.423
		c-0.152,0.475-0.305,0.948-0.443,1.422c-0.085,0.287-0.164,0.577-0.243,0.866l-0.182,0.655c-0.096,0.339-0.191,0.678-0.295,1.083
		c-0.009,0.035-0.019,0.076-0.029,0.119c-0.081,0.324-0.157,0.65-0.233,0.977l-0.242,1.031c-0.04,0.166-0.079,0.331-0.115,0.496
		c-0.002,0.009-0.003,0.016-0.005,0.023c-0.002,0.012-0.005,0.023-0.007,0.034c-0.189,0.882-0.363,1.766-0.519,2.651
		c-2.363,13.43-0.178,24.516,6.496,32.95C21.353,176.423,30.302,181.662,43.009,185.235z"/>
	<g>
		<g>
			<g>
				<g>
					<g>
						<path style="fill:#E30026;" d="M104.729,126.611l48.399-92.351c0,0,5.925-15.803,22.225-18.273
							c16.297-2.469,46.915,3.952,49.384,26.176c2.469,22.223-4.443,111.117-4.443,111.117L104.729,126.611z"/>
						<path style="fill:#6B1517;" d="M220.724,153.867l-0.537-0.124l-116.163-26.808l48.684-92.896
							c0.036-0.106,6.188-16.039,22.574-18.522c2.2-0.334,4.616-0.503,7.18-0.503c9.523,0,19.309,2.244,26.848,6.156
							c9.424,4.891,14.922,12.132,15.9,20.939c2.445,22.014-4.373,110.316-4.443,111.207L220.724,153.867z M105.436,126.286
							l114.426,26.406c0.576-7.545,6.737-89.462,4.403-110.477c-2.14-19.26-26.172-26.251-41.804-26.251
							c-2.517,0-4.884,0.166-7.037,0.492c-15.824,2.398-21.793,17.815-21.852,17.971L105.436,126.286z"/>
					</g>
					<g>
						<path style="fill:#FFFFFF;" d="M192.322,47.374c-11.082-2.844-22.608-4.439-34.054-3.324
							c-3.979,0.386-7.698,1.633-11.582,2.503l-41.957,80.059l115.563,26.669c0,0,4.589-59.004,4.953-92.886
							C215.024,54.519,203.823,50.323,192.322,47.374z"/>
						<path style="fill:#6B1517;" d="M220.724,153.867l-0.537-0.124l-116.163-26.808l42.345-80.799l0.214-0.048
							c1.204-0.27,2.392-0.575,3.575-0.881c2.6-0.67,5.288-1.361,8.065-1.632c2.453-0.238,4.995-0.36,7.557-0.36
							c8.245,0,16.966,1.21,26.661,3.698c12.348,3.167,23.465,7.563,33.042,13.068l0.241,0.139l-0.003,0.278
							c-0.36,33.511-4.908,92.327-4.955,92.918L220.724,153.867z M105.436,126.286l114.426,26.406
							c0.463-6.053,4.544-60.243,4.907-92.024c-9.449-5.397-20.403-9.716-32.564-12.833c-9.617-2.469-18.261-3.669-26.426-3.669
							c-2.531,0-5.042,0.12-7.465,0.356c-2.704,0.262-5.355,0.945-7.92,1.605c-1.123,0.29-2.25,0.579-3.389,0.839L105.436,126.286z"
							/>
					</g>
					<g>
						<path style="fill:#231F20;" d="M163.387,52.936c9.92,0.266,20.106,1.543,29.681,4.194c8.825,2.443,17.435,6.067,25.7,9.996
							c2.107,1.003,4.211,2.058,6.278,3.18c0.097-3.473,0.168-6.8,0.2-9.911c-10.222-5.876-21.423-10.071-32.924-13.021
							c-11.082-2.844-22.608-4.439-34.054-3.324c-3.979,0.386-7.698,1.633-11.582,2.503l-4.285,8.178
							C149.28,53.257,156.385,52.746,163.387,52.936z"/>
						<path style="fill:#6B1517;" d="M225.498,71.092l-0.679-0.369c-1.929-1.047-3.976-2.083-6.256-3.168
							c-9.874-4.693-18.016-7.861-25.623-9.968c-8.98-2.486-18.929-3.891-29.567-4.177c-0.919-0.025-1.838-0.038-2.761-0.038
							c-6.371,0-12.466,0.613-18.112,1.823l-0.989,0.211l4.857-9.27l0.214-0.048c1.204-0.27,2.392-0.575,3.575-0.881
							c2.6-0.67,5.288-1.361,8.065-1.632c2.453-0.238,4.995-0.36,7.557-0.36c8.245,0,16.966,1.21,26.661,3.698
							c12.348,3.167,23.465,7.563,33.042,13.068l0.241,0.139l-0.003,0.277c-0.03,2.969-0.096,6.214-0.2,9.92L225.498,71.092z
							 M160.612,52.422c0.931,0,1.859,0.014,2.787,0.038c10.716,0.288,20.739,1.704,29.795,4.212
							c7.66,2.121,15.851,5.307,25.777,10.025c2.03,0.966,3.876,1.893,5.62,2.824c0.088-3.27,0.146-6.175,0.177-8.854
							c-9.449-5.397-20.403-9.716-32.564-12.833c-9.617-2.469-18.261-3.669-26.426-3.669c-2.531,0-5.042,0.12-7.465,0.356
							c-2.704,0.262-5.355,0.945-7.92,1.605c-1.123,0.29-2.25,0.579-3.389,0.839l-3.718,7.095
							C148.72,52.974,154.543,52.422,160.612,52.422z"/>
					</g>
					<path style="fill:#AC561F;" d="M224.736,42.163c-1.635-14.719-15.618-22.5-29.612-25.364c1.973,2.373,3.342,5.214,3.809,8.341
						c1.951,13.058-1.673,26.78-3.709,39.616c-1.765,11.127-3.02,23.379-11.102,32.012c-8.547,9.13-21.258,11.661-33.329,10.918
						c-10.18-0.626-20.348-2.968-28.807-8.926c-0.652-0.457-1.284-0.943-1.904-1.442l-15.353,29.294l115.563,26.669
						C220.293,153.28,227.205,64.386,224.736,42.163z"/>
					<path style="opacity:0.7;fill:#FFFBD2;" d="M179.739,18.074c0,0-14.857,0.494-21.105,10.619
						c-6.246,10.124-12.667,24.277-12.667,24.277l7.804-0.831l9.644-20.977C163.414,31.162,166.92,19.818,179.739,18.074z"/>
				</g>
				<g>
					<path style="fill:#F79B32;" d="M301.595,187.72c-8.903,50.598-68.28,16.766-146.45,3.015
						C76.976,176.981,9.616,188.52,18.518,137.92c8.901-50.599,80.97-88.898,159.141-75.148
						C255.825,76.525,310.495,137.121,301.595,187.72z"/>
					<path style="fill:#712113;" d="M269.059,215.075c-15.188,0-34.861-5.086-57.641-10.975
						c-16.936-4.378-36.133-9.341-56.357-12.898c-20.222-3.559-39.959-5.444-57.372-7.108c-35.781-3.421-64.043-6.122-75.236-20.825
						c-4.852-6.373-6.293-14.691-4.402-25.431c3.75-21.318,18.75-41.076,42.238-55.634c23.65-14.658,53.893-22.731,85.16-22.731
						c10.747,0,21.612,0.953,32.291,2.832c37.193,6.543,70.889,23.872,94.879,48.794c23.07,23.967,33.803,51.924,29.443,76.703
						C298.744,206.665,288.565,215.075,269.059,215.075z M145.449,60.424c-31.093,0-61.158,8.022-84.66,22.588
						c-23.254,14.413-38.101,33.942-41.804,54.991c-1.841,10.463-0.459,18.539,4.224,24.689
						c10.941,14.374,39.021,17.058,74.57,20.455c17.432,1.666,37.188,3.555,57.448,7.119c20.26,3.563,39.475,8.531,56.429,12.914
						c22.717,5.873,42.335,10.945,57.402,10.945c18.955,0,28.845-8.17,32.068-26.488c4.306-24.477-6.334-52.133-29.192-75.879
						c-23.853-24.778-57.363-42.01-94.359-48.519C166.951,61.372,156.142,60.424,145.449,60.424z"/>
				</g>
				<g>
					<path style="fill:#E30026;" d="M301.595,187.72c-8.903,50.598-68.28,16.766-146.45,3.015
						C76.976,176.981,9.616,188.52,18.518,137.92c8.901-50.599,80.97-88.898,159.141-75.148
						C255.825,76.525,310.495,137.121,301.595,187.72z"/>
					<path style="fill:#6B1517;" d="M269.059,215.075c-15.188,0-34.861-5.086-57.641-10.975
						c-16.936-4.378-36.133-9.341-56.357-12.898c-20.222-3.559-39.959-5.444-57.372-7.108c-35.781-3.421-64.043-6.122-75.236-20.825
						c-4.852-6.373-6.293-14.691-4.402-25.431c3.75-21.318,18.75-41.076,42.238-55.634c23.65-14.658,53.893-22.731,85.16-22.731
						c10.747,0,21.612,0.953,32.291,2.832c37.193,6.543,70.889,23.872,94.879,48.794c23.07,23.967,33.803,51.924,29.443,76.703
						C298.744,206.665,288.565,215.075,269.059,215.075z M145.449,60.424c-31.093,0-61.158,8.022-84.66,22.588
						c-23.254,14.413-38.101,33.942-41.804,54.991c-1.841,10.463-0.459,18.539,4.224,24.689
						c10.941,14.374,39.021,17.058,74.57,20.455c17.432,1.666,37.188,3.555,57.448,7.119c20.26,3.563,39.475,8.531,56.429,12.914
						c22.717,5.873,42.335,10.945,57.402,10.945c18.955,0,28.845-8.17,32.068-26.488c4.306-24.477-6.334-52.133-29.192-75.879
						c-23.853-24.778-57.363-42.01-94.359-48.519C166.951,61.372,156.142,60.424,145.449,60.424z"/>
				</g>
				<g>
					<g>
						<path style="fill:#009945;" d="M18.136,143.041c2.579,0.779,5.184,1.481,7.801,2.132c-0.289-0.542-0.575-1.084-0.865-1.625
							c-1.825-3.405-3.805-6.804-5.544-10.301c-0.397,1.546-0.734,3.104-1.01,4.673c-0.289,1.645-0.482,3.208-0.612,4.724
							C17.983,142.775,18.06,142.908,18.136,143.041z"/>
						<path style="fill:#004E14;" d="M26.857,145.891l-1.034-0.257c-2.842-0.706-5.4-1.406-7.824-2.138l-0.182-0.055l-0.397-0.687
							l0.013-0.152c0.141-1.647,0.343-3.206,0.618-4.765c0.271-1.55,0.613-3.134,1.017-4.708l0.317-1.237l0.567,1.144
							c1.129,2.268,2.378,4.53,3.587,6.719c0.657,1.191,1.313,2.379,1.951,3.568L26.857,145.891z M18.453,142.641
							c2.056,0.619,4.213,1.214,6.561,1.81l-0.36-0.678c-0.636-1.186-1.29-2.37-1.946-3.559c-1.01-1.829-2.049-3.709-3.024-5.607
							c-0.268,1.14-0.502,2.276-0.698,3.396c-0.261,1.484-0.455,2.969-0.594,4.534L18.453,142.641z"/>
					</g>
					<g>
						<path style="fill:#009945;" d="M25.568,117.999c-2.358,4.375-4.234,8.906-5.567,13.562c3.224-0.065,6.445-0.16,9.668-0.255
							C28.053,126.927,26.593,122.508,25.568,117.999z"/>
						<path style="fill:#004E14;" d="M19.367,132.05l0.177-0.619c1.319-4.609,3.205-9.205,5.605-13.657l0.602-1.114l0.28,1.234
							c0.883,3.883,2.181,8.094,4.083,13.249l0.229,0.619l-0.66,0.02c-3.23,0.095-6.451,0.189-9.674,0.255L19.367,132.05z
							 M25.398,119.341c-1.985,3.842-3.583,7.779-4.76,11.731c2.787-0.059,5.572-0.14,8.358-0.222
							C27.397,126.47,26.236,122.763,25.398,119.341z"/>
					</g>
					<g>
						<path style="fill:#009945;" d="M39.174,119.306c-1.2-5.003-2.658-9.951-4.397-14.785c-3.253,3.881-6.096,7.939-8.481,12.152
							c0.022,0.096,0.048,0.191,0.068,0.289C30.632,117.758,34.899,118.563,39.174,119.306z"/>
						<path style="fill:#004E14;" d="M39.805,119.897l-0.712-0.125c-3.734-0.647-7.523-1.355-11.187-2.04l-1.942-0.362l-0.171-0.772
							l0.09-0.159c2.367-4.182,5.236-8.294,8.53-12.223l0.53-0.634l0.28,0.778c1.698,4.717,3.183,9.708,4.412,14.835L39.805,119.897
							z M26.897,116.578l1.185,0.222c3.427,0.64,6.964,1.301,10.46,1.913c-1.117-4.563-2.438-9.012-3.933-13.247
							C31.66,109.053,29.069,112.786,26.897,116.578z"/>
					</g>
					<g>
						<path style="fill:#009945;" d="M56.861,85.028c-7.948,5.328-14.932,11.344-20.703,17.912
							c5.664,2.002,11.617,2.944,17.551,3.962C54.59,99.589,55.816,92.321,56.861,85.028z"/>
						<path style="fill:#004E14;" d="M54.121,107.455l-1.667-0.285c-5.47-0.934-11.125-1.898-16.455-3.782l-0.661-0.233l0.463-0.528
							c5.749-6.542,12.746-12.596,20.796-17.992l0.886-0.595l-0.15,1.057c-0.36,2.507-0.74,5.012-1.121,7.516
							c-0.715,4.697-1.453,9.555-2.031,14.348L54.121,107.455z M36.984,102.723c5.06,1.707,10.429,2.623,15.63,3.511l0.684,0.117
							c0.569-4.646,1.283-9.339,1.974-13.882c0.326-2.147,0.652-4.296,0.967-6.445C48.845,91.074,42.375,96.687,36.984,102.723z"/>
					</g>
					<g>
						<path style="fill:#009945;" d="M24.058,155.529c0.192-0.311,0.385-0.631,0.58-0.956c-0.787-0.939-1.563-1.888-2.317-2.856
							c-1.612-2.07-2.896-4.289-4.205-6.558c-0.108-0.188-0.219-0.384-0.329-0.579c-0.264,6.094,0.822,11.121,3.082,15.305
							C21.964,158.47,23.096,157.079,24.058,155.529z"/>
						<path style="fill:#004E14;" d="M20.797,160.752l-0.347-0.642c-2.375-4.396-3.4-9.482-3.14-15.551l0.073-1.653l1.144,2.016
							c1.256,2.181,2.556,4.434,4.167,6.503c0.668,0.857,1.401,1.761,2.308,2.843l0.216,0.259l-0.173,0.291
							c-0.196,0.327-0.39,0.649-0.583,0.962c-0.824,1.327-1.777,2.548-2.698,3.729L20.797,160.752z M18.222,146.292
							c-0.011,4.863,0.887,9.045,2.726,12.717l0.067-0.086c0.905-1.16,1.843-2.36,2.64-3.644c0.133-0.216,0.267-0.438,0.402-0.661
							c-0.816-0.978-1.491-1.813-2.111-2.609C20.517,150.173,19.338,148.216,18.222,146.292z"/>
					</g>
					<g>
						<path style="fill:#009945;" d="M86.029,76.938c0.931-2.571,1.883-5.137,2.889-7.677c-11.123,3.865-21.357,8.816-30.384,14.656
							c6.782,3.849,13.761,7.332,20.695,10.898C81.359,88.81,83.87,82.912,86.029,76.938z"/>
						<path style="fill:#004E14;" d="M79.496,95.485l-0.483-0.248c-1.282-0.659-2.565-1.314-3.848-1.972
							c-5.568-2.849-11.327-5.793-16.866-8.936l-0.681-0.387l0.658-0.426c9.113-5.896,19.37-10.843,30.486-14.706l0.979-0.34
							l-0.382,0.963c-0.879,2.223-1.796,4.657-2.884,7.664c-1.025,2.839-2.148,5.706-3.234,8.479
							c-1.203,3.071-2.446,6.246-3.563,9.396L79.496,95.485z M59.453,83.891c5.31,2.988,10.813,5.804,16.145,8.53
							c1.123,0.574,2.245,1.147,3.367,1.724c1.074-2.996,2.251-6.002,3.392-8.914c1.083-2.767,2.204-5.628,3.226-8.454
							c0.937-2.587,1.746-4.753,2.516-6.724C77.695,73.743,68.068,78.394,59.453,83.891z"/>
					</g>
					<g>
						<path style="fill:#009945;" d="M106.41,81.886c2.576,2.182,5.139,4.358,7.576,6.678c3.559-5.865,6.703-11.97,9.963-18.009
							c1.782-3.3,3.588-6.587,5.419-9.86c-13.346,1.199-26.092,3.835-37.873,7.704c1.595,1.34,3.151,2.725,4.665,4.157
							C99.523,75.74,102.873,78.894,106.41,81.886z"/>
						<path style="fill:#004E14;" d="M114.087,89.313l-0.428-0.406c-2.487-2.367-5.181-4.647-7.557-6.658
							c-3.448-2.919-6.69-5.961-10.269-9.348c-1.487-1.408-3.05-2.8-4.644-4.139l-0.653-0.549l0.81-0.266
							c11.998-3.941,24.775-6.541,37.979-7.726l0.896-0.081l-0.439,0.786c-1.791,3.199-3.612,6.516-5.416,9.854
							c-0.711,1.318-1.417,2.64-2.123,3.96c-2.489,4.657-5.063,9.474-7.852,14.069L114.087,89.313z M92.453,68.587
							c1.382,1.18,2.735,2.396,4.033,3.624c3.568,3.378,6.801,6.41,10.23,9.313c2.25,1.905,4.783,4.051,7.168,6.29
							c2.659-4.422,5.129-9.045,7.521-13.521c0.706-1.322,1.413-2.645,2.125-3.964c1.657-3.069,3.332-6.119,4.982-9.078
							C115.996,62.438,103.873,64.904,92.453,68.587z"/>
					</g>
					<g>
						<path style="fill:#009945;" d="M170.523,82.052c1.166,2.806,2.306,5.622,3.428,8.445c4.918-5.475,9.919-10.88,14.84-16.352
							c2.218-2.467,4.453-4.927,6.76-7.313c-5.808-1.622-11.78-2.984-17.893-4.061c-5.663-0.996-11.289-1.704-16.861-2.163
							c1.425,3.168,3.085,6.224,4.552,9.384C167.189,73.96,168.847,78.016,170.523,82.052z"/>
						<path style="fill:#004E14;" d="M173.793,91.384l-0.283-0.711c-1.222-3.074-2.343-5.834-3.425-8.438l-0.563-1.355
							c-1.462-3.525-2.976-7.173-4.605-10.688c-0.668-1.438-1.389-2.88-2.085-4.275c-0.833-1.663-1.691-3.384-2.469-5.113
							l-0.331-0.734l0.803,0.066c5.712,0.471,11.4,1.201,16.904,2.17c6.039,1.063,12.074,2.432,17.938,4.069l0.769,0.215
							l-0.555,0.573c-2.177,2.25-4.272,4.547-6.748,7.3c-2.409,2.678-4.835,5.34-7.262,8c-2.533,2.778-5.066,5.557-7.578,8.352
							L173.793,91.384z M161.566,61.151c0.678,1.465,1.407,2.924,2.116,4.342c0.699,1.4,1.424,2.85,2.097,4.3
							c1.639,3.532,3.155,7.188,4.621,10.723l0.562,1.354c1,2.406,2.032,4.946,3.148,7.741c2.345-2.606,4.707-5.197,7.07-7.788
							c2.425-2.66,4.851-5.32,7.257-7.994c2.273-2.528,4.228-4.673,6.219-6.752c-5.594-1.535-11.336-2.825-17.081-3.837
							C172.359,62.323,166.978,61.62,161.566,61.151z"/>
					</g>
					<g>
						<path style="fill:#009945;" d="M205.374,98.706c7.504-6.368,14.824-12.947,22.001-19.683
							c-9.162-4.535-18.968-8.407-29.309-11.453c2.135,6.452,3.261,13.338,4.794,19.887
							C203.734,91.198,204.573,94.948,205.374,98.706z"/>
						<path style="fill:#004E14;" d="M205.075,99.583l-0.166-0.777c-0.79-3.711-1.636-7.493-2.513-11.24
							c-0.466-1.99-0.901-4.048-1.323-6.037c-0.974-4.591-1.98-9.337-3.459-13.809l-0.285-0.861l0.871,0.256
							c10.134,2.985,20.021,6.848,29.386,11.483l0.613,0.303l-0.499,0.469c-7.591,7.124-14.793,13.567-22.02,19.698L205.075,99.583z
							 M198.795,68.282c1.345,4.264,2.291,8.725,3.208,13.049c0.421,1.984,0.855,4.038,1.319,6.018
							c0.816,3.493,1.606,7.014,2.35,10.48c6.853-5.832,13.694-11.955,20.878-18.684C217.684,74.801,208.354,71.149,198.795,68.282z
							"/>
					</g>
					<g>
						<path style="fill:#009945;" d="M230.027,89.059c0.232,4.741,0.555,9.474,0.819,14.212c0.122,2.199,0.226,4.398,0.316,6.598
							c5.969-4.192,11.701-8.766,17.359-13.337c1.117-0.901,2.239-1.805,3.364-2.705c-6.967-5.052-14.518-9.703-22.602-13.827
							c0.122,0.766,0.248,1.531,0.359,2.297C229.967,84.505,229.918,86.831,230.027,89.059z"/>
						<path style="fill:#004E14;" d="M230.725,110.757l-0.036-0.869c-0.091-2.196-0.193-4.394-0.315-6.592
							c-0.104-1.853-0.217-3.704-0.329-5.556c-0.174-2.886-0.35-5.769-0.49-8.659c-0.033-0.672-0.052-1.354-0.071-2.039
							c-0.043-1.554-0.087-3.159-0.309-4.678c-0.084-0.583-0.178-1.166-0.271-1.747l-0.233-1.465l0.832,0.424
							c7.924,4.042,15.549,8.708,22.664,13.865l0.504,0.366l-0.486,0.39c-1.124,0.899-2.246,1.803-3.362,2.703
							c-5.495,4.44-11.364,9.128-17.386,13.356L230.725,110.757z M229.902,80.85c0.073,0.459,0.145,0.919,0.213,1.378
							c0.229,1.572,0.273,3.208,0.316,4.789c0.018,0.678,0.037,1.353,0.07,2.019c0.141,2.885,0.316,5.766,0.49,8.647
							c0.112,1.854,0.226,3.707,0.328,5.561c0.107,1.912,0.199,3.823,0.28,5.734c5.749-4.079,11.357-8.562,16.624-12.815
							c0.956-0.772,1.915-1.545,2.878-2.316C244.423,89.041,237.298,84.674,229.902,80.85z"/>
					</g>
					<g>
						<path style="fill:#009945;" d="M253.818,123.782c4.387-2.204,8.655-4.704,13.065-6.793c2.437-1.154,4.882-2.29,7.325-3.433
							c-6.076-6.572-13.013-12.801-20.708-18.528C253.494,104.61,253.947,114.208,253.818,123.782z"/>
						<path style="fill:#004E14;" d="M253.333,124.558l0.011-0.781c0.072-5.337-0.039-10.774-0.146-16.032
							c-0.086-4.169-0.175-8.479-0.171-12.717l0.001-0.945l0.758,0.564c7.636,5.684,14.625,11.938,20.772,18.587l0.441,0.478
							l-2.537,1.186c-1.793,0.837-3.587,1.675-5.375,2.521c-2.528,1.197-5.058,2.557-7.503,3.871
							c-1.811,0.973-3.685,1.979-5.553,2.917L253.333,124.558z M253.977,95.978c0.01,3.922,0.091,7.895,0.169,11.747
							c0.104,5.01,0.209,10.181,0.157,15.28c1.624-0.83,3.252-1.704,4.832-2.553c2.456-1.32,4.996-2.686,7.546-3.893
							c1.789-0.849,3.585-1.686,5.38-2.523l1.357-0.634C267.623,107.192,261.089,101.336,253.977,95.978z"/>
					</g>
					<g>
						<path style="fill:#009945;" d="M285.928,137.265c1.671-0.314,3.333-0.668,4.991-1.037
							c-4.038-7.124-9.051-14.079-14.942-20.703c-1.123,8.264-2.609,16.465-4.274,24.633
							C276.482,139.435,281.224,138.151,285.928,137.265z"/>
						<path style="fill:#004E14;" d="M271.102,140.729l0.135-0.666c1.869-9.166,3.266-17.213,4.269-24.602l0.14-1.023l0.687,0.771
							c5.889,6.622,10.937,13.615,15,20.784l0.317,0.558l-0.627,0.141c-1.946,0.433-3.537,0.763-5.007,1.04
							c-1.9,0.357-3.843,0.789-5.723,1.207c-2.783,0.617-5.661,1.256-8.52,1.688L271.102,140.729z M276.306,116.616
							c-0.97,6.944-2.282,14.476-4.002,22.966c2.607-0.422,5.235-1.006,7.783-1.571c1.888-0.419,3.838-0.852,5.752-1.213
							c1.299-0.244,2.693-0.531,4.349-0.896C286.373,129.266,281.707,122.784,276.306,116.616z"/>
					</g>
					<g>
						<path style="fill:#009945;" d="M283.528,154.554c4.375,1.344,8.86,2.458,13.27,3.533c1.13,0.275,2.269,0.537,3.409,0.814
							c-1.835-7.179-4.717-14.348-8.561-21.359c-2.411,5.761-4.914,11.523-8.058,16.911
							C283.568,154.485,283.549,154.52,283.528,154.554z"/>
						<path style="fill:#004E14;" d="M300.863,159.548l-2.327-0.558c-0.619-0.146-1.236-0.292-1.851-0.442
							c-4.511-1.099-8.922-2.197-13.297-3.541l-0.585-0.179l0.319-0.522l0.438,0.139l0.002-0.007l-0.385-0.225
							c3.187-5.462,5.714-11.321,8.03-16.855l0.38-0.909l0.475,0.864c3.874,7.067,6.769,14.291,8.603,21.47L300.863,159.548z
							 M284.24,154.274c4.163,1.257,8.37,2.303,12.67,3.351c0.613,0.149,1.228,0.294,1.844,0.441l0.793,0.188
							c-1.744-6.557-4.38-13.147-7.846-19.616C289.536,143.789,287.169,149.185,284.24,154.274z"/>
					</g>
					<g>
						<path style="fill:#009945;" d="M302.514,177.104c0.02-5.265-0.582-10.592-1.777-15.921c-3.422,3.179-6.945,6.253-10.46,9.333
							C294.361,172.698,298.475,174.839,302.514,177.104z"/>
						<path style="fill:#004E14;" d="M302.985,177.912l-0.704-0.395c-2.98-1.672-6.055-3.303-9.026-4.881
							c-1.068-0.566-2.136-1.133-3.202-1.702l-0.605-0.324l1.254-1.099c3.213-2.815,6.534-5.726,9.713-8.678l0.605-0.563
							l0.181,0.807c1.205,5.379,1.808,10.771,1.788,16.026L302.985,177.912z M291.106,170.42c0.864,0.46,1.728,0.919,2.595,1.378
							c2.742,1.456,5.57,2.957,8.336,4.495c-0.04-4.664-0.572-9.433-1.586-14.198c-3.001,2.768-6.11,5.492-9.123,8.131
							L291.106,170.42z"/>
					</g>
					<g>
						<path style="fill:#009945;" d="M292.719,186.792c-0.732,0.544-1.46,1.095-2.189,1.643c1.895,1.787,3.877,3.482,5.658,5.419
							c0.972,1.059,1.879,2.174,2.795,3.283c1.108-2.754,1.987-5.87,2.612-9.417c0.435-2.47,0.703-4.967,0.832-7.479
							C299.462,182.762,295.606,184.656,292.719,186.792z"/>
						<path style="fill:#004E14;" d="M299.124,198.055l-0.793-0.962c-0.803-0.973-1.631-1.979-2.494-2.918
							c-1.256-1.365-2.641-2.636-3.981-3.865c-0.553-0.508-1.105-1.015-1.651-1.53l-0.41-0.387l1.147-0.861
							c0.497-0.375,0.994-0.749,1.494-1.12c1.22-0.903,2.578-1.743,4.016-2.632c1.95-1.206,3.967-2.454,5.668-3.899l0.839-0.713
							l-0.057,1.099c-0.133,2.591-0.415,5.127-0.839,7.537c-0.614,3.484-1.502,6.685-2.64,9.511L299.124,198.055z M291.268,188.475
							c0.408,0.38,0.819,0.758,1.23,1.136c1.355,1.242,2.756,2.526,4.039,3.921c0.797,0.868,1.559,1.783,2.297,2.679
							c0.973-2.578,1.744-5.458,2.293-8.572c0.358-2.038,0.613-4.169,0.762-6.349c-1.55,1.202-3.269,2.265-4.939,3.298
							c-1.42,0.878-2.762,1.708-3.949,2.588c-0.497,0.368-0.992,0.742-1.488,1.115L291.268,188.475z"/>
					</g>
					<g>
						<path style="fill:#009945;" d="M290.811,208.481c3.07-2.417,5.59-5.629,7.505-9.794c-3.304,1.418-6.636,2.788-10.094,3.776
							C289.079,204.472,289.941,206.48,290.811,208.481z"/>
						<path style="fill:#004E14;" d="M290.621,209.235l-0.246-0.564c-0.87-2.004-1.732-4.012-2.591-6.02l-0.211-0.495l0.517-0.148
							c3.548-1.014,7.041-2.47,10.037-3.756l1.135-0.486l-0.516,1.122c-1.891,4.109-4.461,7.464-7.643,9.968L290.621,209.235z
							 M288.869,202.77c0.705,1.65,1.414,3.301,2.129,4.949c2.584-2.146,4.669-4.809,6.339-8.098
							C294.74,200.722,291.837,201.886,288.869,202.77z"/>
					</g>
					<g>
						<path style="fill:#009945;" d="M278.708,153.994c0.589,1.306,1.142,2.631,1.665,3.974c0.563-0.955,1.127-1.906,1.685-2.854
							c-1.11-0.347-2.215-0.705-3.307-1.095C278.734,154.012,278.725,154,278.708,153.994z"/>
						<path style="fill:#004E14;" d="M280.286,159.052l-0.355-0.911c-0.535-1.373-1.092-2.702-1.656-3.95l-0.446-0.99l1.131,0.389
							c0.952,0.339,1.983,0.68,3.239,1.071l0.573,0.179L280.286,159.052z M279.59,154.814c0.292,0.676,0.583,1.369,0.867,2.077
							l0.887-1.503C280.71,155.188,280.133,154.998,279.59,154.814z"/>
					</g>
					<g>
						<path style="fill:#009945;" d="M205.444,103.881c-0.226-1.124-0.452-2.248-0.689-3.37c-0.972,0.818-1.945,1.638-2.922,2.451
							C203.043,103.253,204.246,103.563,205.444,103.881z"/>
						<path style="fill:#004E14;" d="M206.061,104.535l-0.737-0.195c-1.195-0.316-2.394-0.626-3.601-0.915l-0.921-0.222l0.727-0.605
							c0.977-0.813,1.949-1.632,2.921-2.451l0.607-0.511l0.163,0.777c0.235,1.123,0.464,2.249,0.689,3.374L206.061,104.535z
							 M202.859,102.724c0.659,0.164,1.315,0.332,1.969,0.504c-0.123-0.614-0.248-1.229-0.375-1.842
							C203.923,101.833,203.393,102.279,202.859,102.724z"/>
					</g>
					<g>
						<path style="fill:#009945;" d="M288.971,188.368c-0.639-0.646-1.258-1.311-1.855-1.997c0.033,1.145,0.015,2.289-0.05,3.434
							C287.7,189.327,288.336,188.846,288.971,188.368z"/>
						<path style="fill:#004E14;" d="M286.534,190.8l0.058-1.021c0.064-1.148,0.08-2.29,0.049-3.394l-0.037-1.326l0.87,1.001
							c0.577,0.662,1.194,1.326,1.835,1.975l0.384,0.387L286.534,190.8z M287.606,187.628c-0.001,0.395-0.008,0.792-0.022,1.19
							l0.67-0.505C288.034,188.087,287.818,187.857,287.606,187.628z"/>
					</g>
					<g>
						<path style="fill:#009945;" d="M82.313,97.527c-0.837-0.438-1.674-0.877-2.514-1.31c-0.285,0.815-0.562,1.634-0.83,2.455
							C80.083,98.275,81.198,97.894,82.313,97.527z"/>
						<path style="fill:#004E14;" d="M78.215,99.444l0.302-0.919c0.27-0.825,0.548-1.646,0.834-2.465l0.18-0.516l0.485,0.251
							c0.842,0.432,1.68,0.872,2.518,1.312l0.995,0.521l-1.067,0.35c-1.11,0.364-2.222,0.746-3.333,1.142L78.215,99.444z
							 M80.067,96.892c-0.116,0.336-0.23,0.673-0.343,1.011c0.459-0.16,0.918-0.318,1.377-0.472
							C80.758,97.249,80.413,97.07,80.067,96.892z"/>
					</g>
					<g>
						<path style="fill:#009945;" d="M58.001,108.623c-1.142-0.219-2.288-0.431-3.435-0.63c-0.12,1.037-0.219,2.079-0.323,3.12
							C55.47,110.253,56.723,109.422,58.001,108.623z"/>
						<path style="fill:#004E14;" d="M53.666,112.099l0.177-1.756c0.079-0.803,0.159-1.604,0.251-2.404l0.059-0.499l0.495,0.087
							c1.149,0.199,2.299,0.411,3.442,0.631l1.188,0.228l-1.026,0.642c-1.269,0.793-2.525,1.626-3.736,2.476L53.666,112.099z
							 M54.982,108.548c-0.058,0.53-0.111,1.06-0.164,1.59c0.63-0.431,1.269-0.854,1.914-1.271
							C56.149,108.758,55.566,108.652,54.982,108.548z"/>
					</g>
					<g>
						<path style="fill:#009945;" d="M29.172,151.211c-0.064-0.118-0.131-0.236-0.194-0.355c-1.351,0.841-2.295,2.202-3.149,3.614
							c1.199,1.421,2.425,2.822,3.653,4.22C29.052,156.237,28.972,153.729,29.172,151.211z"/>
						<path style="fill:#004E14;" d="M30.244,160.273l-1.117-1.271c-1.232-1.398-2.46-2.804-3.66-4.227l-0.22-0.261l0.176-0.291
							c0.864-1.428,1.862-2.873,3.303-3.771l0.43-0.268l0.502,0.923l-0.012,0.142c-0.204,2.569-0.102,5.045,0.305,7.357
							L30.244,160.273z M26.414,154.425c0.781,0.922,1.572,1.837,2.369,2.747c-0.203-1.769-0.244-3.613-0.12-5.509
							C27.761,152.395,27.048,153.4,26.414,154.425z"/>
					</g>
					<g>
						<path style="fill:#009945;" d="M34.785,132.774c0.108-0.212,0.225-0.416,0.334-0.626c-1.355,0.036-2.711,0.066-4.065,0.106
							c0.591,1.567,1.199,3.132,1.813,4.692C33.468,135.511,34.11,134.113,34.785,132.774z"/>
						<path style="fill:#004E14;" d="M32.853,138.211l-0.429-1.091c-0.613-1.562-1.223-3.128-1.814-4.697l-0.235-0.624l0.666-0.02
							c0.904-0.025,1.809-0.049,2.714-0.071l2.16-0.055l-0.706,1.338c-0.668,1.324-1.309,2.719-1.903,4.14L32.853,138.211z
							 M31.733,132.71c0.38,0.997,0.765,1.992,1.152,2.985c0.457-1.042,0.938-2.063,1.433-3.051l-0.541,0.014
							C33.097,132.675,32.415,132.691,31.733,132.71z"/>
					</g>
					<g>
						<path style="fill:#009945;" d="M138.924,77.885c1.57,3.467,3.205,6.905,4.806,10.358c0.571-1.047,1.145-2.092,1.715-3.137
							c2.686-4.94,5.365-9.885,8.065-14.817c1.793-3.28,3.6-6.557,5.419-9.824c-9.525-0.689-18.887-0.634-27.975,0.101
							c0.781,2.318,1.876,4.554,2.956,6.713C135.67,70.785,137.306,74.312,138.924,77.885z"/>
						<path style="fill:#004E14;" d="M143.695,89.298l-0.396-0.855c-0.544-1.172-1.092-2.344-1.639-3.515
							c-1.066-2.277-2.131-4.556-3.168-6.848c-1.326-2.927-3.094-6.776-5.007-10.589c-1.128-2.254-2.205-4.468-2.982-6.774
							l-0.194-0.576l0.606-0.048c9.209-0.746,18.683-0.778,28.047-0.103l0.743,0.054l-0.362,0.651
							c-1.818,3.267-3.624,6.543-5.417,9.822c-1.978,3.61-3.942,7.228-5.907,10.844L143.695,89.298z M131.605,60.991
							c0.738,2.045,1.712,4.043,2.73,6.074c1.919,3.827,3.691,7.688,5.021,10.623c1.036,2.287,2.101,4.563,3.163,6.838
							c0.416,0.887,0.832,1.774,1.244,2.664l3.422-6.282c1.965-3.618,3.931-7.235,5.908-10.847c1.674-3.063,3.359-6.123,5.057-9.176
							C149.28,60.281,140.335,60.315,131.605,60.991z"/>
					</g>
				</g>
				<g>
					<path style="fill:#FBB532;" d="M290.9,190.318c-7.881,44.794-66.656,13.171-135.858,0.996
						c-69.201-12.174-137.715-2.13-129.835-46.924c7.88-44.794,81.424-65.016,150.625-52.843
						C245.033,103.722,298.781,145.526,290.9,190.318z"/>
					<path style="fill:#BD5521;" d="M261.222,214.021c-14.633,0-33.459-4.876-55.258-10.52
						c-15.501-4.015-33.071-8.565-51.005-11.719c-18.236-3.209-36.809-4.907-53.195-6.405c-34.825-3.186-62.333-5.701-73.041-19.708
						c-4.234-5.539-5.538-12.526-3.983-21.361c3.044-17.304,15.95-31.854,37.324-42.075c19.744-9.443,45.973-14.645,73.852-14.645
						c13.371,0,26.828,1.175,40,3.492c34.273,6.029,65.051,19.261,86.661,37.256c22.336,18.601,32.561,40.642,28.791,62.065
						C288.533,206.517,278.953,214.021,261.222,214.021z M135.915,88.538c-27.74,0-53.822,5.167-73.442,14.552
						c-21.084,10.083-33.809,24.394-36.798,41.383c-1.506,8.559-0.262,15.304,3.803,20.619c10.454,13.676,39.148,16.3,72.373,19.339
						c16.404,1.5,34.998,3.2,53.273,6.416c17.97,3.162,35.56,7.716,51.077,11.734c21.737,5.629,40.509,10.49,55.021,10.49
						c17.423,0,26.432-7.043,29.211-22.835c3.707-21.073-6.401-42.798-28.464-61.17c-21.485-17.891-52.106-31.05-86.219-37.052
						C162.633,89.708,149.232,88.538,135.915,88.538z"/>
				</g>
				<g>
					<path style="fill:none;" d="M275.028,114.382c-2.746-3.479-5.782-6.624-9.095-9.144c-0.001-0.003-0.003-0.004-0.005-0.004
						C269.151,108.195,272.185,111.253,275.028,114.382z"/>
					<path style="opacity:0.5;fill:#F79B32;" d="M265.929,105.234c-1.3-1.195-2.634-2.373-3.993-3.536
						C262.814,102.687,264.123,103.857,265.929,105.234z"/>
					<path style="opacity:0.5;fill:#DEBB9F;" d="M275.028,114.382c16.409,20.784,22.404,53.482,14.225,36.198
						c-9.548-20.178-43.128-42.377-43.128-42.377C187.85,74.29,113.771,78.571,74.591,92.667
						c-39.179,14.098-44.446,32.326-46.75,34.303c-2.305,1.975-3.255-1.977-3.255-1.977c0.611-8.367,8.715-18.678,10.708-21.098
						c-8.753,10.245-14.62,21.773-16.776,34.024c-8.901,50.6,58.458,39.061,136.627,52.814
						c78.17,13.751,137.547,47.583,146.45-3.015C305.857,163.485,295.53,136.958,275.028,114.382z M226.369,165.819
						c-17.777-14.157-78.687-31.936-117.208-26.339c-38.521,5.598-37.861,21.401-34.57,27.327c3.294,5.926,4.28,11.852-9.547,9.218
						c-13.828-2.633-33.22-5.425-33.583-27.369c-0.117-7.105,2.489-16.402,6.744-22.132c1.904-2.562,4.035-4.898,6.352-7.034
						c14.638-13.493,36.689-19.002,55.293-23.042c21.682-4.708,44.407-4.957,66.269-1.085
						c57.616,10.206,104.368,37.203,108.648,61.899S244.149,179.976,226.369,165.819z"/>
				</g>
				<g>
					<path style="fill:#5D3905;" d="M230.823,190.018c-2.219,12.615-35.078,1.004-76.84-6.342
						c-41.765-7.35-76.615-7.648-74.395-20.264c2.22-12.617,38.242-18.99,80.006-11.643
						C201.357,159.117,233.044,177.401,230.823,190.018z"/>
					<path style="fill:#4E2E00;" d="M219.938,196.096c-8.304,0-21.037-2.727-35.782-5.885c-9.116-1.953-19.449-4.165-30.255-6.066
						c-10.808-1.901-21.278-3.348-30.517-4.625c-22.505-3.109-38.765-5.356-43.183-11.421c-1.026-1.407-1.389-3.013-1.08-4.769
						c1.594-9.061,20.154-15.148,46.185-15.148c11.038,0,22.603,1.051,34.372,3.121c19.868,3.495,38.426,9.604,52.254,17.198
						c13.421,7.373,20.477,15.246,19.359,21.6C230.572,194.191,226.964,196.096,219.938,196.096z M125.306,149.132
						c-25.554,0-43.737,5.772-45.249,14.363c-0.267,1.514,0.032,2.836,0.913,4.044c4.179,5.738,21.109,8.078,42.544,11.039
						c9.246,1.277,19.727,2.726,30.552,4.632c10.822,1.903,21.165,4.118,30.29,6.072c14.69,3.146,27.378,5.863,35.582,5.863
						c6.483,0,9.793-1.655,10.418-5.21c1.043-5.929-5.839-13.438-18.882-20.602c-13.738-7.547-32.192-13.618-51.961-17.096
						C147.798,150.178,136.289,149.132,125.306,149.132z"/>
				</g>
				<g>
					<g>
						<path style="fill:#5D3905;" d="M153.983,179.764c41.037,7.219,73.458,18.539,76.675,6.96
							c-3.033-12.322-32.812-28.226-71.063-34.953c-40.714-7.163-75.959-1.283-79.759,10.706
							C83.41,172.214,115.797,173.045,153.983,179.764z"/>
						<path style="fill:#4E2E00;" d="M219.909,192.17L219.909,192.17c-8.31,0-21.046-2.726-35.794-5.883
							c-9.105-1.948-19.424-4.157-30.215-6.056c-10.794-1.899-21.253-3.346-30.479-4.621c-24.018-3.32-41.371-5.72-44.032-12.971
							l-0.056-0.152l0.049-0.154c2.725-8.596,20.755-14.15,45.934-14.15c11.034,0,22.596,1.05,34.361,3.12
							c36.779,6.47,68.16,21.979,71.441,35.308l0.03,0.121l-0.033,0.119C230.107,190.48,226.547,192.17,219.909,192.17z
							 M80.341,162.464c2.678,6.602,20.586,9.077,43.211,12.206c9.234,1.276,19.702,2.724,30.514,4.626
							c10.808,1.901,21.136,4.112,30.248,6.063c14.695,3.145,27.387,5.861,35.595,5.861c6.068,0,9.333-1.432,10.259-4.504
							c-1.533-5.874-9.556-12.843-22.048-19.143c-13.323-6.72-30.586-12.165-48.607-15.335c-11.712-2.061-23.217-3.105-34.196-3.105
							C101.099,149.133,83.08,154.483,80.341,162.464z"/>
					</g>
				</g>
			</g>
			<path style="opacity:0.3;fill:#FFFFFF;" d="M20.001,139.21c0,0,4.585-40.504,62.062-64.887
				c51.854-21.997,155.028-17.99,196.645,51.564c0,0-51.325-53.609-128.88-54.398C48.171,70.454,20.001,139.21,20.001,139.21z"/>
		</g>
		<path style="opacity:0.4;fill:#FFFFFF;" d="M39.768,158.96c0,0-11.679-12.983,2.156-31.598
			C55.758,108.749,93.4,87.927,184.95,100.611c0,0-85.479-8.657-119.503,12.684C32.422,134.01,34.72,146.832,39.768,158.96z"/>
	</g>
</g>
</svg>
